<?xml version="1.0" encoding="UTF-8"?>
<svg id="Lionfish" xmlns="http://www.w3.org/2000/svg" xmlns:xlink="http://www.w3.org/1999/xlink" viewBox="0 0 256 256">
  <defs>
    <style>
      .cls-1 {
        fill: url(#radial-gradient-4);
      }

      .cls-2 {
        fill: url(#radial-gradient-3);
      }

      .cls-3 {
        fill: url(#radial-gradient-2);
      }

      .cls-4 {
        fill: #414042;
      }

      .cls-5 {
        fill: url(#linear-gradient-8);
      }

      .cls-6 {
        fill: url(#linear-gradient-7);
      }

      .cls-7 {
        fill: url(#linear-gradient-5);
      }

      .cls-8 {
        fill: url(#linear-gradient-6);
      }

      .cls-9 {
        fill: url(#linear-gradient-9);
      }

      .cls-10 {
        fill: url(#linear-gradient-4);
      }

      .cls-11 {
        fill: url(#linear-gradient-3);
      }

      .cls-12 {
        fill: url(#linear-gradient-2);
      }

      .cls-13 {
        fill: #d3965c;
      }

      .cls-13, .cls-14 {
        opacity: .6;
      }

      .cls-13, .cls-14, .cls-15, .cls-16, .cls-17, .cls-18, .cls-19, .cls-20, .cls-21, .cls-22 {
        isolation: isolate;
      }

      .cls-23 {
        fill: url(#radial-gradient);
      }

      .cls-24 {
        fill: url(#linear-gradient);
      }

      .cls-25 {
        fill: #542d30;
      }

      .cls-14 {
        stroke: #fff;
        stroke-linecap: round;
        stroke-width: .16px;
      }

      .cls-14, .cls-26 {
        fill: #fff;
      }

      .cls-27 {
        fill: url(#linear-gradient-43);
      }

      .cls-28 {
        fill: url(#linear-gradient-40);
      }

      .cls-29 {
        fill: url(#linear-gradient-41);
      }

      .cls-30 {
        fill: url(#linear-gradient-42);
      }

      .cls-31 {
        fill: url(#linear-gradient-49);
      }

      .cls-32 {
        fill: url(#linear-gradient-48);
      }

      .cls-33 {
        fill: url(#linear-gradient-45);
      }

      .cls-34 {
        fill: url(#linear-gradient-47);
      }

      .cls-35 {
        fill: url(#linear-gradient-44);
      }

      .cls-36 {
        fill: url(#linear-gradient-46);
      }

      .cls-37 {
        fill: url(#linear-gradient-10);
      }

      .cls-38 {
        fill: url(#linear-gradient-11);
      }

      .cls-39 {
        fill: url(#linear-gradient-12);
      }

      .cls-40 {
        fill: url(#linear-gradient-13);
      }

      .cls-41 {
        fill: url(#linear-gradient-19);
      }

      .cls-42 {
        fill: url(#linear-gradient-14);
      }

      .cls-43 {
        fill: url(#linear-gradient-21);
      }

      .cls-44 {
        fill: url(#linear-gradient-20);
      }

      .cls-45 {
        fill: url(#linear-gradient-22);
      }

      .cls-46 {
        fill: url(#linear-gradient-23);
      }

      .cls-47 {
        fill: url(#linear-gradient-28);
      }

      .cls-48 {
        fill: url(#linear-gradient-25);
      }

      .cls-49 {
        fill: url(#linear-gradient-32);
      }

      .cls-50 {
        fill: url(#linear-gradient-30);
      }

      .cls-51 {
        fill: url(#linear-gradient-15);
      }

      .cls-52 {
        fill: url(#linear-gradient-16);
      }

      .cls-53 {
        fill: url(#linear-gradient-17);
      }

      .cls-54 {
        fill: url(#linear-gradient-18);
      }

      .cls-55 {
        fill: url(#linear-gradient-35);
      }

      .cls-56 {
        fill: url(#linear-gradient-34);
      }

      .cls-57 {
        fill: url(#linear-gradient-36);
      }

      .cls-58 {
        fill: url(#linear-gradient-38);
      }

      .cls-59 {
        fill: url(#linear-gradient-27);
      }

      .cls-60 {
        fill: url(#linear-gradient-24);
      }

      .cls-61 {
        fill: url(#linear-gradient-26);
      }

      .cls-62 {
        fill: url(#linear-gradient-37);
      }

      .cls-63 {
        fill: url(#linear-gradient-39);
      }

      .cls-64 {
        fill: url(#linear-gradient-57);
      }

      .cls-65 {
        fill: url(#linear-gradient-58);
      }

      .cls-66 {
        fill: url(#linear-gradient-59);
      }

      .cls-67 {
        fill: url(#linear-gradient-53);
      }

      .cls-68 {
        fill: url(#linear-gradient-54);
      }

      .cls-69 {
        fill: url(#linear-gradient-55);
      }

      .cls-70 {
        fill: url(#linear-gradient-56);
      }

      .cls-71 {
        fill: url(#linear-gradient-50);
      }

      .cls-72 {
        fill: url(#linear-gradient-51);
      }

      .cls-73 {
        fill: url(#linear-gradient-52);
      }

      .cls-74 {
        fill: url(#linear-gradient-67);
      }

      .cls-75 {
        fill: url(#linear-gradient-68);
      }

      .cls-76 {
        fill: url(#linear-gradient-69);
      }

      .cls-77 {
        fill: url(#linear-gradient-63);
      }

      .cls-78 {
        fill: url(#linear-gradient-64);
      }

      .cls-79 {
        fill: url(#linear-gradient-65);
      }

      .cls-80 {
        fill: url(#linear-gradient-66);
      }

      .cls-81 {
        fill: url(#linear-gradient-60);
      }

      .cls-82 {
        fill: url(#linear-gradient-61);
      }

      .cls-83 {
        fill: url(#linear-gradient-62);
      }

      .cls-84 {
        fill: url(#linear-gradient-72);
      }

      .cls-85 {
        fill: url(#linear-gradient-71);
      }

      .cls-86 {
        fill: url(#linear-gradient-70);
      }

      .cls-87 {
        fill: #2b2265;
      }

      .cls-15 {
        fill: url(#linear-gradient-33);
      }

      .cls-15, .cls-16, .cls-17, .cls-21 {
        opacity: .35;
      }

      .cls-16 {
        fill: url(#linear-gradient-31);
      }

      .cls-17 {
        fill: url(#linear-gradient-29);
      }

      .cls-18 {
        fill: url(#linear-gradient-74);
      }

      .cls-18, .cls-19, .cls-20 {
        opacity: .8;
      }

      .cls-19 {
        fill: url(#linear-gradient-75);
      }

      .cls-20 {
        fill: url(#linear-gradient-73);
      }

      .cls-21 {
        fill: #d5c7c1;
      }

      .cls-22 {
        fill: url(#radial-gradient-5);
        opacity: .7;
      }
    </style>
    <linearGradient id="linear-gradient" x1="7444.44" y1="7539.39" x2="7445.44" y2="7539.39" gradientTransform="translate(-123090.63 -59939) scale(16.54 7.96)" gradientUnits="userSpaceOnUse">
      <stop offset="0" stop-color="#f1f2f2"/>
      <stop offset=".06" stop-color="#eeeeef"/>
      <stop offset=".27" stop-color="#e6e7e8"/>
      <stop offset="1" stop-color="#d1d3d4"/>
    </linearGradient>
    <linearGradient id="linear-gradient-2" x1="7364.37" y1="7602.31" x2="7365.37" y2="7602.31" gradientTransform="translate(-104320.94 -64194.49) scale(14.17 8.45)" xlink:href="#linear-gradient"/>
    <linearGradient id="linear-gradient-3" x1="7481.66" y1="7401.26" x2="7482.66" y2="7401.26" gradientTransform="translate(-134135.89 -52143.43) scale(17.94 7.05)" xlink:href="#linear-gradient"/>
    <linearGradient id="linear-gradient-4" x1="7501" y1="6749.3" x2="7502" y2="6749.3" gradientTransform="translate(-140640.72 -30925.39) scale(18.76 4.59)" xlink:href="#linear-gradient"/>
    <linearGradient id="linear-gradient-5" x1="7495.96" y1="6011.24" x2="7496.96" y2="6011.24" gradientTransform="translate(-138889.03 -19727.92) scale(18.54 3.29)" xlink:href="#linear-gradient"/>
    <linearGradient id="linear-gradient-6" x1="7495.96" y1="6671.75" x2="7496.96" y2="6671.75" gradientTransform="translate(-138889.03 -29354.5) scale(18.54 4.4)" xlink:href="#linear-gradient"/>
    <linearGradient id="linear-gradient-7" x1="7468.79" y1="7444.93" x2="7469.79" y2="7444.93" gradientTransform="translate(-130110.11 -54419.34) scale(17.43 7.31)" xlink:href="#linear-gradient"/>
    <linearGradient id="linear-gradient-8" x1="7462.63" y1="7532.86" x2="7463.63" y2="7532.86" gradientTransform="translate(-128263.97 -59537.95) scale(17.2 7.91)" xlink:href="#linear-gradient"/>
    <linearGradient id="linear-gradient-9" x1="7416.33" y1="7440.43" x2="7417.33" y2="7440.43" gradientTransform="translate(-115824.36 -54179.45) scale(15.63 7.29)" xlink:href="#linear-gradient"/>
    <linearGradient id="linear-gradient-10" x1="7278.25" y1="7233.24" x2="7279.25" y2="7233.24" gradientTransform="translate(-89328.61 -44771.23) scale(12.28 6.19)" xlink:href="#linear-gradient"/>
    <linearGradient id="linear-gradient-11" x1="6466.11" y1="7131.65" x2="6467.11" y2="7131.65" gradientTransform="translate(-35119.04 -41103.75) scale(5.44 5.77)" xlink:href="#linear-gradient"/>
    <linearGradient id="linear-gradient-12" x1="6913.04" y1="3782" x2="6914.04" y2="3782" gradientTransform="translate(-54165.75 -6664.24) scale(7.84 1.77)" gradientUnits="userSpaceOnUse">
      <stop offset="0" stop-color="#f1f2f2"/>
      <stop offset=".09" stop-color="#e9eaeb"/>
      <stop offset=".21" stop-color="#e6e7e8"/>
      <stop offset=".22" stop-color="#e5e6e7"/>
      <stop offset=".4" stop-color="#dadbdd"/>
      <stop offset=".62" stop-color="#d3d5d6"/>
      <stop offset="1" stop-color="#d1d3d4"/>
    </linearGradient>
    <linearGradient id="linear-gradient-13" x1="7089.47" y1="6369.31" x2="7090.47" y2="6369.31" gradientTransform="translate(-67311.18 -24238.31) scale(9.5 3.81)" xlink:href="#linear-gradient-12"/>
    <linearGradient id="linear-gradient-14" x1="7174.09" y1="7338.59" x2="7175.09" y2="7338.59" gradientTransform="translate(-75814.1 -49161.02) scale(10.57 6.7)" xlink:href="#linear-gradient-12"/>
    <linearGradient id="linear-gradient-15" x1="7224.83" y1="7637.72" x2="7225.83" y2="7637.72" gradientTransform="translate(-81900.18 -66829.76) scale(11.34 8.76)" xlink:href="#linear-gradient-12"/>
    <linearGradient id="linear-gradient-16" x1="7282.16" y1="7742.96" x2="7283.16" y2="7742.96" gradientTransform="translate(-89935.91 -75926.92) scale(12.36 9.81)" xlink:href="#linear-gradient-12"/>
    <linearGradient id="linear-gradient-17" x1="7296.13" y1="7763.71" x2="7297.13" y2="7763.71" gradientTransform="translate(-92116.13 -77985.42) scale(12.63 10.05)" xlink:href="#linear-gradient-12"/>
    <linearGradient id="linear-gradient-18" x1="7305.61" y1="7828.18" x2="7306.61" y2="7828.18" gradientTransform="translate(-93654.53 -85075.51) scale(12.83 10.87)" xlink:href="#linear-gradient-12"/>
    <linearGradient id="linear-gradient-19" x1="7263.19" y1="7840.08" x2="7264.19" y2="7840.08" gradientTransform="translate(-87126.99 -86514.21) scale(12 11.04)" xlink:href="#linear-gradient-12"/>
    <linearGradient id="linear-gradient-20" x1="7221.37" y1="7801.53" x2="7222.37" y2="7801.53" gradientTransform="translate(-81463.01 -82008.59) scale(11.29 10.52)" xlink:href="#linear-gradient-12"/>
    <linearGradient id="linear-gradient-21" x1="6617.65" y1="7019.02" x2="6618.65" y2="7019.02" gradientTransform="translate(-40120.7 -37598.2) scale(6.07 5.36)" xlink:href="#linear-gradient-12"/>
    <linearGradient id="linear-gradient-22" x1="7091.74" y1="7645.91" x2="7092.74" y2="7645.91" gradientTransform="translate(-67526.56 -67466.23) scale(9.53 8.83)" xlink:href="#linear-gradient-12"/>
    <linearGradient id="linear-gradient-23" x1="7252.57" y1="6772.99" x2="7253.57" y2="6772.99" gradientTransform="translate(-85619.58 -31446.71) scale(11.81 4.65)" gradientUnits="userSpaceOnUse">
      <stop offset="0" stop-color="#f1f2f2"/>
      <stop offset=".07" stop-color="#e9eaeb"/>
      <stop offset=".16" stop-color="#e6e7e8"/>
      <stop offset=".17" stop-color="#e5e6e7"/>
      <stop offset=".28" stop-color="#dadbdd"/>
      <stop offset=".42" stop-color="#d3d5d6"/>
      <stop offset=".67" stop-color="#d1d3d4"/>
    </linearGradient>
    <linearGradient id="linear-gradient-24" x1="7334.98" y1="6242.27" x2="7335.98" y2="6242.27" gradientTransform="translate(-98723.43 -22494.53) scale(13.47 3.61)" gradientUnits="userSpaceOnUse">
      <stop offset="0" stop-color="#f1f2f2"/>
      <stop offset=".05" stop-color="#eeeeef"/>
      <stop offset=".22" stop-color="#e6e7e8"/>
      <stop offset=".4" stop-color="#dddee0"/>
      <stop offset=".69" stop-color="#d4d6d7"/>
      <stop offset="1" stop-color="#d1d3d4"/>
    </linearGradient>
    <linearGradient id="linear-gradient-25" x1="7368.64" y1="6111.05" x2="7369.64" y2="6111.05" gradientTransform="translate(-105196.29 -20864.08) scale(14.28 3.42)" gradientUnits="userSpaceOnUse">
      <stop offset="0" stop-color="#f1f2f2"/>
      <stop offset=".06" stop-color="#eeeeef"/>
      <stop offset=".27" stop-color="#e6e7e8"/>
      <stop offset=".39" stop-color="#e1e2e3"/>
      <stop offset=".72" stop-color="#d5d7d8"/>
      <stop offset="1" stop-color="#d1d3d4"/>
    </linearGradient>
    <linearGradient id="linear-gradient-26" x1="7323.89" y1="5203.72" x2="7324.89" y2="5203.72" gradientTransform="translate(-96749.08 -13031.35) scale(13.22 2.51)" xlink:href="#linear-gradient"/>
    <linearGradient id="linear-gradient-27" x1="7230.45" y1="5148.44" x2="7231.45" y2="5148.44" gradientTransform="translate(-82628.55 -12685.82) scale(11.43 2.47)" xlink:href="#linear-gradient"/>
    <linearGradient id="linear-gradient-28" x1="7325.12" y1="8181.17" x2="7325.12" y2="8182.07" gradientTransform="translate(-96894.99 -161394.11) scale(13.23 19.73)" gradientUnits="userSpaceOnUse">
      <stop offset="0" stop-color="#bba795"/>
      <stop offset=".06" stop-color="#bba694"/>
      <stop offset=".09" stop-color="#baa190"/>
      <stop offset=".1" stop-color="#b99989"/>
      <stop offset=".11" stop-color="#b88e81"/>
      <stop offset=".13" stop-color="#b68076"/>
      <stop offset=".14" stop-color="#b46f6a"/>
      <stop offset=".14" stop-color="#b15a5d"/>
      <stop offset=".15" stop-color="#af4553"/>
      <stop offset=".35" stop-color="#bba795"/>
      <stop offset=".42" stop-color="#7c5f53"/>
      <stop offset=".5" stop-color="#af4553"/>
      <stop offset=".55" stop-color="#8c5b54"/>
      <stop offset=".58" stop-color="#7c5f53"/>
      <stop offset=".67" stop-color="#e6e7e8"/>
      <stop offset=".68" stop-color="#e4e1e1"/>
      <stop offset=".69" stop-color="#dfd5d4"/>
      <stop offset=".71" stop-color="#d8c3c1"/>
      <stop offset=".72" stop-color="#d0aba8"/>
      <stop offset=".73" stop-color="#c68c8b"/>
      <stop offset=".74" stop-color="#ba6b6d"/>
      <stop offset=".76" stop-color="#af4553"/>
      <stop offset=".77" stop-color="#b04e57"/>
      <stop offset=".8" stop-color="#b36a67"/>
      <stop offset=".84" stop-color="#b68076"/>
      <stop offset=".88" stop-color="#b89183"/>
      <stop offset=".92" stop-color="#ba9d8d"/>
      <stop offset=".96" stop-color="#bba593"/>
      <stop offset="1" stop-color="#bba795"/>
    </linearGradient>
    <linearGradient id="linear-gradient-29" x1="7275.84" y1="8150.09" x2="7275.84" y2="8151.09" gradientTransform="translate(-88923.78 -150039.55) scale(12.23 18.41)" xlink:href="#linear-gradient-28"/>
    <linearGradient id="linear-gradient-30" x1="7256.79" y1="8144.9" x2="7257.49" y2="8145.87" gradientTransform="translate(-86200.57 -148291.04) scale(11.88 18.21)" gradientUnits="userSpaceOnUse">
      <stop offset="0" stop-color="#bba795"/>
      <stop offset=".06" stop-color="#bba694"/>
      <stop offset=".09" stop-color="#baa190"/>
      <stop offset=".1" stop-color="#b99989"/>
      <stop offset=".11" stop-color="#b88e81"/>
      <stop offset=".13" stop-color="#b68076"/>
      <stop offset=".14" stop-color="#b46f6a"/>
      <stop offset=".14" stop-color="#b15a5d"/>
      <stop offset=".15" stop-color="#af4553"/>
      <stop offset=".35" stop-color="#e6e7e8"/>
      <stop offset=".5" stop-color="#af4553"/>
      <stop offset=".52" stop-color="#b3525b"/>
      <stop offset=".59" stop-color="#cb9b99"/>
      <stop offset=".65" stop-color="#dccfcd"/>
      <stop offset=".67" stop-color="#e6e7e8"/>
      <stop offset=".68" stop-color="#e4e1e1"/>
      <stop offset=".69" stop-color="#dfd5d4"/>
      <stop offset=".71" stop-color="#d8c3c1"/>
      <stop offset=".72" stop-color="#d0aba8"/>
      <stop offset=".73" stop-color="#c68c8b"/>
      <stop offset=".74" stop-color="#ba6b6d"/>
      <stop offset=".76" stop-color="#af4553"/>
      <stop offset=".77" stop-color="#b04e57"/>
      <stop offset=".8" stop-color="#b36a67"/>
      <stop offset=".84" stop-color="#b68076"/>
      <stop offset=".88" stop-color="#b89183"/>
      <stop offset=".92" stop-color="#ba9d8d"/>
      <stop offset=".96" stop-color="#bba593"/>
      <stop offset="1" stop-color="#bba795"/>
    </linearGradient>
    <linearGradient id="linear-gradient-31" x1="7201.98" y1="8111" x2="7202.75" y2="8112.07" gradientTransform="translate(-79053.49 -137746.27) scale(10.98 16.99)" xlink:href="#linear-gradient-30"/>
    <linearGradient id="linear-gradient-32" x1="7238.88" y1="8125.6" x2="7239.57" y2="8126.58" gradientTransform="translate(-83734.87 -142105.73) scale(11.57 17.49)" xlink:href="#linear-gradient-30"/>
    <linearGradient id="linear-gradient-33" x1="7182.82" y1="8090.5" x2="7183.6" y2="8091.57" gradientTransform="translate(-76801.7 -132026.18) scale(10.7 16.32)" xlink:href="#linear-gradient-30"/>
    <linearGradient id="linear-gradient-34" x1="7268.47" y1="8170.8" x2="7268.75" y2="8171.78" gradientTransform="translate(-87852.24 -157439.85) scale(12.09 19.27)" xlink:href="#linear-gradient-30"/>
    <linearGradient id="linear-gradient-35" x1="7283.37" y1="8166.63" x2="7283.92" y2="8167.62" gradientTransform="translate(-90101.09 -155898.06) scale(12.38 19.09)" xlink:href="#linear-gradient-30"/>
    <linearGradient id="linear-gradient-36" x1="5543.62" y1="6950.52" x2="5544.05" y2="6950.32" gradientTransform="translate(-18419.61 -35693.8) scale(3.33 5.14)" gradientUnits="userSpaceOnUse">
      <stop offset="0" stop-color="#a35563"/>
      <stop offset=".17" stop-color="#a15764"/>
      <stop offset=".26" stop-color="#9c5a66"/>
      <stop offset=".33" stop-color="#93606a"/>
      <stop offset=".4" stop-color="#866770"/>
      <stop offset=".45" stop-color="#756e78"/>
      <stop offset=".5" stop-color="#5d7682"/>
      <stop offset=".5" stop-color="#5c7782"/>
      <stop offset=".51" stop-color="#627580"/>
      <stop offset=".56" stop-color="#786d77"/>
      <stop offset=".6" stop-color="#886670"/>
      <stop offset=".66" stop-color="#94606a"/>
      <stop offset=".72" stop-color="#9d5a66"/>
      <stop offset=".81" stop-color="#a15664"/>
      <stop offset="1" stop-color="#a35563"/>
    </linearGradient>
    <linearGradient id="linear-gradient-37" x1="7042.27" y1="8196.59" x2="7042.27" y2="8197.59" gradientTransform="translate(-63262.75 -167657.8) scale(8.99 20.46)" xlink:href="#linear-gradient-28"/>
    <linearGradient id="linear-gradient-38" x1="6810.15" y1="8188.28" x2="6810.15" y2="8189.34" gradientTransform="translate(-48424.48 -164237.37) scale(7.11 20.06)" gradientUnits="userSpaceOnUse">
      <stop offset="0" stop-color="#bba795"/>
      <stop offset=".06" stop-color="#bba694"/>
      <stop offset=".09" stop-color="#baa190"/>
      <stop offset=".1" stop-color="#b99989"/>
      <stop offset=".11" stop-color="#b88e81"/>
      <stop offset=".13" stop-color="#b68076"/>
      <stop offset=".14" stop-color="#b46f6a"/>
      <stop offset=".14" stop-color="#b15a5d"/>
      <stop offset=".15" stop-color="#af4553"/>
      <stop offset=".35" stop-color="#bba795"/>
      <stop offset=".42" stop-color="#7c5f53"/>
      <stop offset=".5" stop-color="#af4553"/>
      <stop offset=".56" stop-color="#b36b68"/>
      <stop offset=".64" stop-color="#b99586"/>
      <stop offset=".67" stop-color="#bba795"/>
      <stop offset=".68" stop-color="#b99788"/>
      <stop offset=".7" stop-color="#b67b73"/>
      <stop offset=".72" stop-color="#b36664"/>
      <stop offset=".74" stop-color="#b1545a"/>
      <stop offset=".76" stop-color="#b04955"/>
      <stop offset=".77" stop-color="#af4553"/>
      <stop offset=".77" stop-color="#b4545c"/>
      <stop offset=".78" stop-color="#be7172"/>
      <stop offset=".8" stop-color="#c88c8a"/>
      <stop offset=".81" stop-color="#d2a4a2"/>
      <stop offset=".82" stop-color="#dabab8"/>
      <stop offset=".84" stop-color="#e1cdca"/>
      <stop offset=".86" stop-color="#e7dcda"/>
      <stop offset=".88" stop-color="#ece6e6"/>
      <stop offset=".91" stop-color="#f0eeef"/>
      <stop offset="1" stop-color="#f1f2f2"/>
    </linearGradient>
    <linearGradient id="linear-gradient-39" x1="6287.19" y1="8161.9" x2="6287.19" y2="8162.97" gradientTransform="translate(-30417.09 -154176.15) scale(4.84 18.89)" gradientUnits="userSpaceOnUse">
      <stop offset="0" stop-color="#bba795"/>
      <stop offset=".05" stop-color="#b7a290"/>
      <stop offset=".1" stop-color="#ac9482"/>
      <stop offset=".15" stop-color="#9a7d6d"/>
      <stop offset=".2" stop-color="#826254"/>
      <stop offset=".25" stop-color="#6a463b"/>
      <stop offset=".36" stop-color="#bba795"/>
      <stop offset=".48" stop-color="#af4553"/>
      <stop offset=".51" stop-color="#b26061"/>
      <stop offset=".55" stop-color="#b57971"/>
      <stop offset=".58" stop-color="#b88c7f"/>
      <stop offset=".61" stop-color="#b99b8b"/>
      <stop offset=".64" stop-color="#baa492"/>
      <stop offset=".67" stop-color="#bba795"/>
      <stop offset=".68" stop-color="#b99788"/>
      <stop offset=".7" stop-color="#b67b73"/>
      <stop offset=".72" stop-color="#b36664"/>
      <stop offset=".74" stop-color="#b1545a"/>
      <stop offset=".76" stop-color="#b04955"/>
      <stop offset=".77" stop-color="#af4553"/>
      <stop offset=".77" stop-color="#b4545c"/>
      <stop offset=".78" stop-color="#be7172"/>
      <stop offset=".8" stop-color="#c88c8a"/>
      <stop offset=".81" stop-color="#d2a4a2"/>
      <stop offset=".82" stop-color="#dabab8"/>
      <stop offset=".84" stop-color="#e1cdca"/>
      <stop offset=".86" stop-color="#e7dcda"/>
      <stop offset=".88" stop-color="#ece6e6"/>
      <stop offset=".91" stop-color="#f0eeef"/>
      <stop offset="1" stop-color="#f1f2f2"/>
    </linearGradient>
    <linearGradient id="linear-gradient-40" x1="4952.28" y1="8164.34" x2="4951.06" y2="8165.31" gradientTransform="translate(-13187.27 -155038.49) scale(2.67 18.99)" xlink:href="#linear-gradient-39"/>
    <linearGradient id="linear-gradient-41" x1="6783.32" y1="8088.48" x2="6782.44" y2="8089.28" gradientTransform="translate(-47091.02 -131469.69) scale(6.94 16.26)" xlink:href="#linear-gradient-39"/>
    <linearGradient id="linear-gradient-42" x1="6976.96" y1="7657.5" x2="6976.75" y2="7658.46" gradientTransform="translate(-58361 -68434.7) scale(8.37 8.94)" gradientUnits="userSpaceOnUse">
      <stop offset="0" stop-color="#bba795"/>
      <stop offset=".08" stop-color="#bba492"/>
      <stop offset=".16" stop-color="#ba9c8c"/>
      <stop offset=".24" stop-color="#b88e81"/>
      <stop offset=".32" stop-color="#b67b73"/>
      <stop offset=".41" stop-color="#b36463"/>
      <stop offset=".48" stop-color="#af4553"/>
      <stop offset=".51" stop-color="#b26061"/>
      <stop offset=".55" stop-color="#b57971"/>
      <stop offset=".58" stop-color="#b88c7f"/>
      <stop offset=".61" stop-color="#b99b8b"/>
      <stop offset=".64" stop-color="#baa492"/>
      <stop offset=".67" stop-color="#bba795"/>
      <stop offset=".68" stop-color="#b99788"/>
      <stop offset=".7" stop-color="#b67b73"/>
      <stop offset=".72" stop-color="#b36664"/>
      <stop offset=".74" stop-color="#b1545a"/>
      <stop offset=".76" stop-color="#b04955"/>
      <stop offset=".77" stop-color="#af4553"/>
      <stop offset=".92" stop-color="#d6afac"/>
      <stop offset="1" stop-color="#f1f2f2"/>
    </linearGradient>
    <linearGradient id="linear-gradient-43" x1="7757.28" y1="8215.09" x2="7757.21" y2="8216.06" gradientTransform="translate(-368699.41 -175801.35) scale(47.53 21.4)" gradientUnits="userSpaceOnUse">
      <stop offset="0" stop-color="#b8523e"/>
      <stop offset=".2" stop-color="#ab6043"/>
      <stop offset=".44" stop-color="#dc987b"/>
      <stop offset=".64" stop-color="#bc7457"/>
      <stop offset=".79" stop-color="#ab6043"/>
      <stop offset="1" stop-color="#7f3050"/>
    </linearGradient>
    <radialGradient id="radial-gradient" cx="7369" cy="8062.89" fx="7369" fy="8062.89" r=".64" gradientTransform="translate(-105223.08 -124890.43) scale(14.28 15.49)" gradientUnits="userSpaceOnUse">
      <stop offset=".36" stop-color="#c5a9a0"/>
      <stop offset=".52" stop-color="#c5aba4"/>
      <stop offset=".7" stop-color="#c4b0ae"/>
      <stop offset=".9" stop-color="#c3b8c0"/>
      <stop offset="1" stop-color="#c2bdcc"/>
    </radialGradient>
    <radialGradient id="radial-gradient-2" cx="2704.48" cy="1352.89" fx="2704.48" fy="1352.89" r=".5" gradientTransform="translate(-4100.04 -1570.56) scale(1.52 1.18)" gradientUnits="userSpaceOnUse">
      <stop offset=".12" stop-color="#2a3384"/>
      <stop offset=".53" stop-color="#2c2c77"/>
      <stop offset="1" stop-color="#2b2265"/>
    </radialGradient>
    <linearGradient id="linear-gradient-44" x1="4913.01" y1="6650.82" x2="4914.01" y2="6650.82" gradientTransform="translate(-12928.03 -28962.77) scale(2.63 4.36)" gradientUnits="userSpaceOnUse">
      <stop offset="0" stop-color="#f3fafd"/>
      <stop offset=".01" stop-color="#f2f7f8"/>
      <stop offset=".3" stop-color="#ddd2ce"/>
      <stop offset=".56" stop-color="#cfbbb4"/>
      <stop offset=".81" stop-color="#c8aea5"/>
      <stop offset="1" stop-color="#c5a9a0"/>
    </linearGradient>
    <linearGradient id="linear-gradient-45" x1="6542.12" y1="7863.61" x2="6542.12" y2="7864.61" gradientTransform="translate(-37503.17 -89573.13) scale(5.73 11.39)" gradientUnits="userSpaceOnUse">
      <stop offset="0" stop-color="#542d30"/>
      <stop offset=".21" stop-color="#79423b"/>
      <stop offset=".46" stop-color="#a25843"/>
      <stop offset=".67" stop-color="#c36846"/>
      <stop offset=".86" stop-color="#d97247"/>
      <stop offset="1" stop-color="#e27748"/>
    </linearGradient>
    <linearGradient id="linear-gradient-46" x1="6234.14" y1="7446.18" x2="6234.14" y2="7447.18" gradientTransform="translate(-29221.1 -54516.8) scale(4.69 7.32)" xlink:href="#linear-gradient-45"/>
    <linearGradient id="linear-gradient-47" x1="6474.18" y1="7765.23" x2="6474.18" y2="7766.23" gradientTransform="translate(-35373.09 -78206.31) scale(5.47 10.07)" xlink:href="#linear-gradient-45"/>
    <linearGradient id="linear-gradient-48" x1="5920.02" y1="6789.39" x2="5920.02" y2="6790.39" gradientTransform="translate(-23398.48 -31818.87) scale(3.95 4.69)" xlink:href="#linear-gradient-45"/>
    <linearGradient id="linear-gradient-49" x1="4831.25" y1="4119.14" x2="4831.25" y2="4120.14" gradientTransform="translate(-12368.04 -7827.1) scale(2.56 1.9)" xlink:href="#linear-gradient-45"/>
    <linearGradient id="linear-gradient-50" x1="5518.01" y1="7528.6" x2="5519.01" y2="7528.6" gradientTransform="translate(-18170.25 -59275.85) scale(3.29 7.88)" xlink:href="#linear-gradient-45"/>
    <linearGradient id="linear-gradient-51" x1="31.33" y1="5335.24" x2="31.33" y2="5336.24" gradientTransform="translate(-25.88 -13907.74) scale(1 2.61)" xlink:href="#linear-gradient-45"/>
    <linearGradient id="linear-gradient-52" x1="3476.71" y1="6875.54" x2="3476.71" y2="6876.54" gradientTransform="translate(-6190.16 -33818.73) scale(1.78 4.92)" xlink:href="#linear-gradient-45"/>
    <linearGradient id="linear-gradient-53" x1="4668.84" y1="7153.94" x2="4668.84" y2="7154.94" gradientTransform="translate(-11362.19 -41897.02) scale(2.43 5.86)" xlink:href="#linear-gradient-45"/>
    <linearGradient id="linear-gradient-54" x1="4197.01" y1="5365.12" x2="4197.01" y2="5366.12" gradientTransform="translate(-8921.34 -14111.88) scale(2.13 2.63)" xlink:href="#linear-gradient-45"/>
    <linearGradient id="linear-gradient-55" x1="2768.8" y1="3304.75" x2="2768.8" y2="3305.75" gradientTransform="translate(-4254 -5307.99) scale(1.54 1.61)" xlink:href="#linear-gradient-45"/>
    <linearGradient id="linear-gradient-56" x1="4426.77" y1="6489.79" x2="4427.77" y2="6489.79" gradientTransform="translate(-10026.29 -26108.27) scale(2.27 4.03)" gradientUnits="userSpaceOnUse">
      <stop offset="0" stop-color="#542d30"/>
      <stop offset=".5" stop-color="#945141"/>
      <stop offset="1" stop-color="#e27748"/>
    </linearGradient>
    <linearGradient id="linear-gradient-57" x1="6978.97" y1="7882.01" x2="6978.97" y2="7883.01" gradientTransform="translate(-58505.22 -92033.56) scale(8.38 11.68)" gradientUnits="userSpaceOnUse">
      <stop offset="0" stop-color="#e3d7e1"/>
      <stop offset=".12" stop-color="#e9e4eb"/>
      <stop offset=".25" stop-color="#f3fafd"/>
      <stop offset=".47" stop-color="#e3d7e1"/>
      <stop offset=".74" stop-color="#f3fafd"/>
      <stop offset=".78" stop-color="#f1f5f5"/>
      <stop offset=".83" stop-color="#eaeae6"/>
      <stop offset=".88" stop-color="#dfdbcf"/>
      <stop offset=".93" stop-color="#d2c7b2"/>
      <stop offset=".98" stop-color="#c1af91"/>
      <stop offset="1" stop-color="#bca786"/>
    </linearGradient>
    <linearGradient id="linear-gradient-58" x1="7153.84" y1="8097.7" x2="7153.84" y2="8098.7" gradientTransform="translate(-73588.5 -133990.93) scale(10.29 16.55)" xlink:href="#linear-gradient-57"/>
    <linearGradient id="linear-gradient-59" x1="7145.02" y1="8082.51" x2="7145.02" y2="8083.51" gradientTransform="translate(-72663.41 -129923.58) scale(10.17 16.08)" xlink:href="#linear-gradient-57"/>
    <linearGradient id="linear-gradient-60" x1="6571.98" y1="7965.48" x2="6571.98" y2="7966.48" gradientTransform="translate(-38494.96 -104962.3) scale(5.86 13.18)" xlink:href="#linear-gradient-57"/>
    <linearGradient id="linear-gradient-61" x1="6145.9" y1="8175.48" x2="6145.9" y2="8176.48" gradientTransform="translate(-27361.24 -159225.22) scale(4.46 19.48)" xlink:href="#linear-gradient-57"/>
    <linearGradient id="linear-gradient-62" x1="5966.33" y1="8140.38" x2="5966.33" y2="8141.38" gradientTransform="translate(-24119.29 -146812.78) scale(4.05 18.04)" xlink:href="#linear-gradient-57"/>
    <linearGradient id="linear-gradient-63" x1="5560.61" y1="8128.92" x2="5560.61" y2="8129.92" gradientTransform="translate(-18609.18 -143147.97) scale(3.35 17.61)" xlink:href="#linear-gradient-57"/>
    <linearGradient id="linear-gradient-64" x1="4850.31" y1="8021.58" x2="4850.31" y2="8022.58" gradientTransform="translate(-12463.69 -115698.25) scale(2.58 14.43)" xlink:href="#linear-gradient-57"/>
    <linearGradient id="linear-gradient-65" x1="5358.79" y1="8073.8" x2="5358.79" y2="8074.8" gradientTransform="translate(-16516.19 -127692.56) scale(3.09 15.82)" xlink:href="#linear-gradient-57"/>
    <linearGradient id="linear-gradient-66" x1="4431.89" y1="7958.25" x2="4431.89" y2="7959.25" gradientTransform="translate(-10013.5 -103713.97) scale(2.27 13.04)" xlink:href="#linear-gradient-57"/>
    <linearGradient id="linear-gradient-67" x1="4700.15" y1="7664.26" x2="4700.15" y2="7665.26" gradientTransform="translate(-11506.07 -68984.37) scale(2.46 9)" xlink:href="#linear-gradient-57"/>
    <linearGradient id="linear-gradient-68" x1="3931.75" y1="7391.04" x2="3931.75" y2="7392.04" gradientTransform="translate(-7755.37 -51667.25) scale(1.98 6.99)" xlink:href="#linear-gradient-57"/>
    <linearGradient id="linear-gradient-69" x1="3458.33" y1="7270.98" x2="3458.33" y2="7271.98" gradientTransform="translate(-6085.23 -46283.82) scale(1.77 6.37)" xlink:href="#linear-gradient-57"/>
    <linearGradient id="linear-gradient-70" x1="4027.82" y1="7344.54" x2="4027.82" y2="7345.54" gradientTransform="translate(-8138.35 -49460.76) scale(2.03 6.74)" xlink:href="#linear-gradient-57"/>
    <linearGradient id="linear-gradient-71" x1="2164" y1="7231.9" x2="2165" y2="7231.9" gradientTransform="translate(-2922.27 -44713.75) scale(1.38 6.19)" gradientUnits="userSpaceOnUse">
      <stop offset="0" stop-color="#f3fafd"/>
      <stop offset=".19" stop-color="#eff2f3"/>
      <stop offset=".44" stop-color="#e6e2df"/>
      <stop offset=".71" stop-color="#d7c9c3"/>
      <stop offset="1" stop-color="#c5a9a0"/>
    </linearGradient>
    <radialGradient id="radial-gradient-3" cx="7571.1" cy="8160.08" fx="7571.1" fy="8160.08" r="1.06" gradientTransform="translate(-170160.18 -153274.46) scale(22.48 18.79)" gradientUnits="userSpaceOnUse">
      <stop offset=".2" stop-color="#79726f"/>
      <stop offset=".29" stop-color="#7b6e6b"/>
      <stop offset=".43" stop-color="#7f6361"/>
      <stop offset=".61" stop-color="#855251"/>
      <stop offset=".67" stop-color="#864c4d"/>
      <stop offset=".91" stop-color="#542d30"/>
    </radialGradient>
    <linearGradient id="linear-gradient-72" x1="7677.06" y1="7906.77" x2="7677.84" y2="7907.96" gradientTransform="translate(-246774.02 -95611.5) scale(32.15 12.09)" gradientUnits="userSpaceOnUse">
      <stop offset="0" stop-color="#bba795"/>
      <stop offset=".02" stop-color="#b8a392"/>
      <stop offset=".04" stop-color="#af9689"/>
      <stop offset=".06" stop-color="#a1837c"/>
      <stop offset=".08" stop-color="#8f6a6b"/>
      <stop offset=".1" stop-color="#7a4e58"/>
      <stop offset=".11" stop-color="#693749"/>
      <stop offset=".23" stop-color="#c48069"/>
      <stop offset=".23" stop-color="#b27164"/>
      <stop offset=".26" stop-color="#905759"/>
      <stop offset=".28" stop-color="#7a4450"/>
      <stop offset=".3" stop-color="#6d3a4b"/>
      <stop offset=".33" stop-color="#693749"/>
      <stop offset=".33" stop-color="#6f3c4c"/>
      <stop offset=".35" stop-color="#915759"/>
      <stop offset=".37" stop-color="#ab6d62"/>
      <stop offset=".39" stop-color="#bd7b68"/>
      <stop offset=".4" stop-color="#c48069"/>
      <stop offset=".42" stop-color="#9f635e"/>
      <stop offset=".44" stop-color="#804a53"/>
      <stop offset=".46" stop-color="#6f3b4c"/>
      <stop offset=".48" stop-color="#693749"/>
      <stop offset=".6" stop-color="#c48069"/>
      <stop offset="1" stop-color="#d3a28b"/>
    </linearGradient>
    <radialGradient id="radial-gradient-4" cx="7717.29" cy="8225.01" fx="7717.29" fy="8225.01" r=".77" gradientTransform="translate(-296401.61 -180072.71) scale(38.41 21.9)" gradientUnits="userSpaceOnUse">
      <stop offset=".18" stop-color="#a65f60"/>
      <stop offset=".19" stop-color="#a56564"/>
      <stop offset=".23" stop-color="#a27d7a"/>
      <stop offset=".26" stop-color="#9f8d89"/>
      <stop offset=".28" stop-color="#9e938f"/>
      <stop offset=".32" stop-color="#856e6b"/>
      <stop offset=".4" stop-color="#542d30"/>
      <stop offset=".43" stop-color="#603836"/>
      <stop offset=".53" stop-color="#875543"/>
      <stop offset=".58" stop-color="#976146"/>
      <stop offset="1" stop-color="#9e938f"/>
    </radialGradient>
    <radialGradient id="radial-gradient-5" cx="7411.59" cy="8100.95" fx="7411.59" fy="8100.95" r=".93" gradientTransform="translate(-114722.13 -134621.43) scale(15.48 16.62)" gradientUnits="userSpaceOnUse">
      <stop offset=".16" stop-color="#d3a28b"/>
      <stop offset=".35" stop-color="#cea290"/>
      <stop offset=".71" stop-color="#c5a89f"/>
      <stop offset="1" stop-color="#bcacac"/>
    </radialGradient>
    <linearGradient id="linear-gradient-73" x1="6620.02" y1="6128.51" x2="6621.02" y2="6128.51" gradientTransform="translate(-40208.28 -21088.89) scale(6.08 3.44)" gradientUnits="userSpaceOnUse">
      <stop offset=".12" stop-color="#9b6d6f"/>
      <stop offset=".5" stop-color="#9c7b7b"/>
      <stop offset="1" stop-color="#9e938f"/>
    </linearGradient>
    <linearGradient id="linear-gradient-74" x1="6990.49" y1="6845.02" x2="6991.49" y2="6845.02" gradientTransform="translate(-59338.6 -33091.8) scale(8.49 4.84)" xlink:href="#linear-gradient-73"/>
    <linearGradient id="linear-gradient-75" x1="6721.08" y1="6789.11" x2="6722.08" y2="6789.11" gradientTransform="translate(-44264.05 -31818.23) scale(6.59 4.69)" xlink:href="#linear-gradient-73"/>
    <symbol id="v" viewBox="0 0 74.85 55.9">
      <g>
        <g>
          <path class="cls-26" d="M54.41,33.83c.64.8,1.68,1.04,2.48,1.68.96.72,1.84,1.6,2.73,2.49,1.69,1.52,3.45,3.37,5.77,3.61,1.04.08,1.53-.24,2.41-.48s1.92-.24,2.72-.56c1.52-.64,3.13-3.69,3.45-5.29.08-.48-.16-.8.08-1.2.16-.48.32-.56.4-1.04,0-.16.24-1.28.16-1.6-.08-.48.08-.96.16-1.44,0-.88-.08-2.16-.48-2.97-.56-.96-1.04-1.12-1.04-2.49,0-2.16.8-4.09-2.24-4.25-1.12-.08-1.76.72-2.97.8-1.12.08-1.68-.08-2.73.56-1.52.96-3.29,1.44-4.89,2.09-1.76.64-2.81,1.76-4.49,2.64-.88.48-1.2.56-1.52,1.52-.16.64,0,1.44,0,2.16,0,1.2-.32,2.49-.24,3.69l.24.08h0Z"/>
          <path class="cls-26" d="M54.53,33.81c4.08,3.54,11.92,10.85,17.14,5.65,2.48-2.47,3.21-8.25,2.77-11.53-.25-1.81-1.39-2.42-1.31-4.34.17-4.43-7.12-2.19-8.88-1.23-2.33,1.27-4.72,2.01-7.04,3.39-2.07,1.24-2.79,1.8-2.65,4.34.02.35-.53,3.55-.13,3.68.17.06.14.2-.04.14l-.24-.08c-.05-.02-.13-.04-.13-.11.06-2.52-.72-6.02,1.79-7.41,3.39-1.87,7.25-4.74,11.16-5.26,2.31-.31,3.8-1.36,5.9-.27.44.23.5.84.6,1.24.39,1.65.43,3.37.96,5.02.99,3.03.34,12.63-3.82,13.6-2.43.57-5.12,1.8-7.47.3-3.09-1.97-6.1-4.7-8.85-7.09-.12-.11.17-.1.24-.04h0Z"/>
          <g>
            <path class="cls-24" d="M55.54,32.89l3.92,2.29,3.37,1.77,3.64,1.39,1.58.23,2.1.34,1.75.52-.17.19-1.54-.34-1.31-.34.37.34,1.01.34,1.27.22-.32.3-3.47-.89-1.95-.64-3.49-1.5,2.63,1.58.82.45,1.8.41,3.04.76.2.13-.28.14-1.69-.35,1.02.55-.46.09-3.19-1.16-3.19-1.65-3.12-1.88-3.08-1.88-1.46-1.05.19-.34Z"/>
            <path class="cls-12" d="M56.57,34.28l1.8,1.27,1.73,1.16,2.3,1.62,2.07,1.36,1.47.64,2.76.64-.79.15-1.66-.39,1.02.58h-.49l-2.61-1.49-2.35-1.4.39.41,1.1.84,1.49.73,1.7,1.15-.76.09-1.82-1.27-1.98-1.36-1.96-1.67.27.4,1.03.86.97.81,3.15,2.22-.81-.15-3.51-2.34-.32-.08-3.55-3.28-2.08-1.3-.6-.68.66-.6,1.39,1.1Z"/>
            <path class="cls-11" d="M55.36,32.62l2.48,1.38,4.81,1.76,3.45,1.51,3.45.88,1.65.57.92.22.15-.24-1.29-.35,1.41.15.24-.48h-2.19l-3.45-1.01-2.53-.99,1.65.31,1.73.54,2.15.14,1.98.39,1.12.19.11-.45-1.93-.15,1.93-.02.09-.42h-3.47l-1.83-.17-1.94-.51-4.15-1.36-3.41-1.25-2.99-1.38-.13.73Z"/>
            <path class="cls-10" d="M73.66,35.93l.13-.51h-1.54l1.54-.26v-.33l-4.31.22-2.46-.48-2.35-.59,1.96.22,2.37.07,1.32.06,2.3-.35h1.36l.13-.33h-.64l.82-.35v-.24l-2.46.51-3.03.13-4.47-.48-3.44-.53-3.03-.68-2.33-.68.1.61,1.26.58,2.18.64,3.27.9,3.78.83,1.56.51,2.31.11,2.24.24,1.43.17Z"/>
            <path class="cls-7" d="M56.04,31.34l2.62.33,4.26.4,4.41.35,1.96.28,1.54-.26,2.67-.06.93.11.07-.61-1.04.13,1.04-.44v-.24l-1.81.27-3.42.51-2.26-.42-2.11-.04.73-.15,2.15-.18,1.94-.39,2.86-.09h1.91l.08-.48-2.77.08,2.77-.74v-.31l-1.19.11-2.62.73-2.26.46-3.45.34h-2.02l-3.75-.1-3.14-.42-.11.81Z"/>
            <path class="cls-8" d="M56.14,30.09l6.92-.11,3.65-.39,2.57-.59,3.31-.2,2-.09v-.35l-2.97.07,1.58-.51,1.32-.35-.07-.22-3.26.85-2.35.39-3.08.53,1.93-.63,2.28-.94,1.87-.42,1.49-.33.69-.26-.31-.19-1.23.33,1.11-.75-.12-.24-2.08.97-2.67.68-3.46,1.26-1.61.53-4.26.15h-3.32l.09.81Z"/>
          </g>
          <path class="cls-6" d="M73.13,24.7l-.05.02-2.97,1.06-4.33,1.65-2.9.75-3.01.59-3.82.31-.13-.53,2.58-.44,2.88-.35,2.83-.75,2.18-.99,2.72-1.4,1.81-1.26,1.6-.97.77-.62.05.54-2.88,2.08-1.87,1.04-2.31,1.16,1.18-.29,2.49-1.08,1.78-1.16,1.49-.97.06.73-1.38.7,1.36-.18-.13.37Z"/>
          <g>
            <path class="cls-5" d="M56.04,27.89l2.24-.63,2.77-.86,2.58-.98,2.53-1.13,2.85-1.74,2.04-1.3.99-.81.56.24-1.13.83-1.73,1.17-1.91,1.03-1.49.88-.4.35,1.08-.4,2.72-1.54,1.71-1.08,1.36-1.07.31.65-2.06,1.18-3.8,2.13-2.07.9-2.77,1.01-3.3.88-3.19.77.13-.46Z"/>
            <path class="cls-9" d="M71.39,20.44l-1.93,1.33-2.53,1.2-3.6,1.91-2.96,1.28-2.2.75-2.13.81-.28-.29,2.3-.9,2.44-1.03,2.15-1.03,1.98-1.1,1.76-.93,1.63-.9.81-.51,1.07-.42-1.5,1.17-2.3,1.17-1.98,1.15,1.69-.69,1.63-.88,1.3-.64.94-.72,1.25-.72h.46Z"/>
          </g>
          <path class="cls-37" d="M55.76,27.3l-.23-.51,6.94-3.67,1.36-.44-3.76,2.06,1.05-.34,3.52-2.07,2.15-1.03-.92.81,1.71-1h.24l-2.9,1.81-3.08,1.71-3.36,1.58-2.71,1.1Z"/>
          <path class="cls-38" d="M37.2,35.86l5.44,5.77"/>
        </g>
        <path class="cls-14" d="M45.19,43.98l.87.11h.94l.87,1.04h.3l.28.28.11-.1v-.17l.47-.02.68.79h.53l.26-.23.11-.38.87.04.45.28.25-.19.42-.04.51-.36.85-.21.3-.75.43-.02.08-.3h.11l.25-.49-.09-.49h.21v-.32h.12v-.28l-.23-.23.23-.77-.21-.56.21-.53.26-.74-.08-.62v-1.03l-.17-1.47-.84-1.35-1.24-1.56-3.2-.63-3.45-.09-1.69.95-.64.45-1.54.29-3.65.49-2.32-.02-1.68.17v.32l1.98,1.62,2.39,2.54,1.24.94.9.16,1.4,1.4,2.18,2.04Z"/>
        <g>
          <path class="cls-39" d="M46.31,32.96l2.58.26,2.72.54,2,.57.54.24-.15-.47-2.47-.53h1.93l-.18-.23-1.91-.37-2.85-.17h-1.57l-.63.16Z"/>
          <path class="cls-40" d="M55.05,35.64l-.2-.35-1.21-.49-2.64-.71-2.31-.41-2.39-.46h-.47l1.04.46,3.34,1.12,2.53,1,1.73.79.85.45v-.28l-1.02-.51,1.02.34v-.34l-1.43-.34-2.22-.96-.83-.38,1.07.24,1.34.32,1.04.34.72.18Z"/>
          <path class="cls-42" d="M55.35,38.75v-.3l-.88-.71.88.45v-.45l-1.32-.37-4.07-1.91-2.91-1.01-1.76-.9-.52.35,1.76.89,3.53,1.95,2.84,1.59,1.65,1.32.8.6v-.33l-.88-.8.88.49v-.36l-1.65-.96-1.62-1.02-1.62-.93,1.49.55,1.29.46.92.56.51.47.69.36Z"/>
          <path class="cls-51" d="M43.87,34.46l1.73,1.18,3.76,2.4,3.21,2.47,1.4,1.46.96.88v-.3l-.28-.41.55.3v-.36l-1.24-.74-1.29-1.07-1.67-1.46-1.15-.8,1.35.64,1.35.9,1.61,1.27,1.06.96v-.28l-.63-.68.63.41v-.47l-.82-.49-1.68-1.02-2.48-1.87-2.8-1.31-2.99-1.97-.58.37Z"/>
          <path class="cls-52" d="M54.69,43.86l.16-.19-1.64-1.48,1.64,1.15v-.32l-1.89-1.39-3.42-2.99-3.5-2.28-2.8-2.04-.74.24,3.16,2.16,1.65,1.27,2.76,2.47,2.13,1.98,2.11,1.7h.17l-1.18-1.16-2.83-2.72-2.03-1.67.74.33,1.06.88,1.11.96,1.67,1.54.88.88.8.68Z"/>
          <path class="cls-53" d="M41.29,34.8l2.22,1.65,3.21,2.64,2.82,2.61,1.06,1.15,1.24.99,1.43,1.02h.17l-1.54-1.29-1.46-1.43-1.45-1.35-1.32-1.32,1.46,1.13,1.48,1.18,1.02,1.07,1.32,1.1.85.66.14-.16-1.59-1.43-1.32-1.24-2.33-1.95-1.76-1.49-1.81-1.31-2.83-2.23h-.99Z"/>
          <g>
            <path class="cls-54" d="M52.66,45.23l.17-.14-1.07-.82-.74-.44-1.76-1.59-2.25-2.14-2.23-1.91-2.72-2.29-1.15-1.1h-.91l2.06,1.92,2.91,2.51,2.33,2.41,2.11,2.03,1.32,1.18,1.24.82.17-.14-1.18-.99-.72-.49-2.38-2.31-1.44-1.62,1.44,1.13,1.01,1.04,1.2,1.07.78.77.85.52.96.57Z"/>
            <path class="cls-41" d="M38.6,34.8l2.47,2.5,3.13,2.97,2.21,2.28,1.77,1.59,1.48,1.7h.25l-2.14-2.31-1.76-1.84-1.24-1.29,1.29.99,1.15,1.21.8.85.82.96.7.63.69.8h.2l-.49-.63-.88-.93-.69-.69,1.02.77.67.69.37.49h.17l-.36-.52-1.04-1.1-1.59-1.43-1.62-1.54-1.9-1.72-2.14-2.07-2.12-2.2-1.24-.16Z"/>
            <path class="cls-44" d="M37.39,35.12l3.08,2.84,2.2,2,1.59,1.89,1.04.85,1.4,1.29,1.1,1.21h.22l-.83-1.07-1.34-1.18.19-.11.99.93.99,1.07.41.36.25.11-2.63-2.72-1.44-1.62-2.95-2.79-3.24-3.39-1.01.32Z"/>
            <path class="cls-43" d="M35.22,35.12l1.07,1.12,3.16,2.99.85,1.01.99.25-.6-.66-1.9-2.02-2.25-2.34-.31-.34h-1.01Z"/>
          </g>
          <path class="cls-45" d="M41.81,40.68l.69.8,1.37,1.21,1.29,1.29.22-.17-1.78-1.92,2.25,1.98.16-.11-3.87-3.69-4.94-4.92h-.71l2.88,3.05,2.44,2.49Z"/>
          <path class="cls-46" d="M40.54,22.4l1.64-2.12,3.42-1.28h.28l-1.1.73-1.47.71,1.24-.31,2.13-.89,2.04-.49,2.6-.47,1.03.38-1.43.14-1.64.52-2.97.73-2.44.89-1.31.58-.8,1.41-1.22-.52Z"/>
          <path class="cls-60" d="M42.4,23.15l4.45-1.64,2.06-.4h2.58l1.9.33,1.38.33.76.36v-.36l-1.04-.4-2.13-.37h1.01l1.19.12.7.23-.14-.35-.56-.4h-4.57l-1.17.16,1.13-.32,1.48-.16h3.09l.42.16-.28-.57-.84-.33-2.53.17-1.99.33-1.57.41-1.71.44-1.54.58-2.39,1.22.33.47Z"/>
          <path class="cls-48" d="M43.05,23.65l2.06-.51,2.46-.23h2.37l2.63.6,1.87.56,1.48.59.93.51.02-.3-1.09-.68-1.62-.69h.49l1.11.4.77.47v-.34l-.39-.2-1.23-.7-1.62-.23-1.45-.15-2.04-.31h1.26l1.6-.12,1.64.26,1.46.54.55.37v-.6l-.9-.45-1.06-.45-2.16-.25-2.83.14-1.68.21-1.74.35-2.02.45-1.33.37.47.36Z"/>
          <path class="cls-61" d="M43.47,23.94l.68.45,3.12-.34,2.93.4,2.81.74,1.39.63,1.52.21.22-.11-1.28-.49-1.5-.44-2.18-.72,2.08.41,1.62.21,1.03.45.51.34.26-.25-.93-.62-3.57-.86-2.74-.29-2.06-.14h-2.06l-1.85.43Z"/>
          <path class="cls-59" d="M44.48,24.58l.4.43h1.06l2.87.33,2.43.65,2.42.72,1.22.2v-.44l-1.97-.33-1.76-.58,1.57.18,1.06.28,1.77.39.39-.17-2.63-.68-1.71-.56-2.51-.33-2.62-.23-1.97.13Z"/>
        </g>
        <path class="cls-14" d="M40.41,22.42l2.2,1.1,2.25,1.82,3.47.97.72.27,2.58.41,3.05.1,2.56-1.66-.51-.85.16-.13-.53-.93v-.46l-.17-.54-.51-.1-.1-.65-.27-.66-.28-.51-.24-.54-.98-.84-2.46-1.03-4.01.37-2.49.35-2.34.96-1.36.73-.73,1.82Z"/>
        <g>
          <g>
            <path class="cls-4" d="M66.18,40.18c0-.23-.22-.41-.5-.41s-.5.19-.5.41.23.41.5.41.51-.19.51-.41h0ZM49.98,36.24c0-.1-.08-.18-.18-.18s-.17.08-.17.18c0,.05.02.09.05.12s.08.05.12.05c.1,0,.17-.08.17-.17h0ZM52.61,37.96c0-.1-.08-.17-.17-.17-.05,0-.09.02-.12.05s-.05.08-.05.12c0,.1.08.17.17.17s.17-.08.17-.17ZM59.6,35.39c0-.1-.08-.17-.17-.17s-.17.08-.17.17.08.17.17.17c.05,0,.09-.02.12-.05s.05-.08.05-.12h0ZM57.55,31.1s-.02-.09-.05-.12-.08-.05-.12-.05c-.1,0-.17.08-.17.17s.08.17.17.17.17-.08.17-.17ZM38.85,37.3c0-.09-.08-.17-.17-.17s-.17.08-.17.17.08.17.17.17.17-.08.17-.17ZM40.42,38.71s-.02-.09-.05-.12-.08-.05-.12-.05-.09.02-.12.05-.05.08-.05.12c0,.09.08.17.17.17s.17-.08.17-.17h0ZM49.22,40.97c0-.1-.08-.17-.17-.17s-.17.08-.17.17.08.17.17.17.17-.08.17-.17h0ZM45.5,39.32c0-.1-.08-.17-.17-.17s-.17.08-.17.17.08.17.17.17c.05,0,.09-.02.12-.05s.05-.08.05-.12h0ZM44.66,38.05c0-.09-.08-.17-.17-.17-.05,0-.09.02-.12.05s-.05.08-.05.12.02.09.05.12.08.05.12.05c.09,0,.17-.08.17-.17h0ZM41.81,39.89c0-.12-.12-.22-.26-.22s-.26.1-.26.22.12.22.26.22.26-.1.26-.22h0ZM57.55,28.4c0-.1-.08-.17-.17-.17s-.17.08-.17.17.08.17.17.17c.05,0,.09-.02.12-.05s.05-.08.05-.12h0ZM54.06,25.88c-.11-.11-.27-.12-.36-.03s-.07.25.04.35.27.12.36.04.07-.25-.04-.35h0ZM53.31,25.05c-.04-.15-.16-.24-.27-.2s-.15.17-.11.32.17.24.27.21.15-.17.11-.32h0ZM52.32,25.51c-.04-.15-.17-.24-.27-.21s-.15.17-.11.32.16.24.27.21.15-.17.11-.32h0ZM51.77,25.84c-.06-.14-.19-.22-.29-.18s-.14.19-.08.33.19.22.29.18.14-.19.08-.33h0ZM53.89,24.52c-.04-.15-.17-.24-.27-.21s-.15.17-.11.32.17.24.27.2.15-.17.11-.32h0ZM54.19,22.09c-.05-.16-.19-.26-.33-.22s-.2.2-.15.37.19.26.33.22.2-.2.15-.36h0ZM55.58,24.96c-.08-.13-.23-.18-.32-.12s-.1.21-.01.34.23.18.31.12.1-.21.02-.34ZM54.96,25.48c-.12-.14-.29-.19-.37-.12s-.05.24.07.38.29.19.37.12.05-.24-.07-.38h0ZM55.68,22.65c-.12-.14-.29-.19-.37-.12s-.05.24.07.38.28.19.37.12c.08-.07.05-.24-.07-.38h0ZM56.07,23.85c-.12-.14-.25-.22-.29-.19s.02.18.14.32.25.22.29.19-.02-.18-.14-.32h0ZM51.24,18.47c-.18-.04-.33-.03-.35.02s.12.13.3.17.33.03.35-.02-.12-.13-.3-.17h0ZM55.08,20.86c-.1-.11-.22-.17-.27-.13-.05.04-.01.17.09.29s.22.17.27.13.01-.17-.09-.29h0ZM55.28,21.69c-.1-.12-.22-.17-.28-.13s0,.17.09.29.22.17.27.13c.05-.05.01-.17-.08-.29h0ZM56.3,24.74c-.12-.14-.25-.23-.29-.19s.02.18.14.32.25.22.29.19-.02-.18-.15-.32h0ZM55.21,23.88c-.13-.13-.33-.15-.44-.03s-.11.31.02.44.33.15.44.03.1-.31-.02-.45h0ZM69.54,24.58c0-.1-.08-.17-.18-.17s-.18.08-.18.17.08.17.18.17.18-.08.18-.17ZM60.47,34.33c0-.06-.02-.12-.07-.17s-.1-.07-.17-.07-.12.02-.17.07-.07.1-.07.17c0,.13.11.24.24.24.06,0,.12-.02.17-.07s.07-.1.07-.17h0ZM54.34,36.24c0-.13-.1-.24-.24-.24s-.24.11-.24.24.11.24.24.24c.06,0,.12-.02.17-.07s.07-.1.07-.17h0ZM47.73,34.53c0-.13-.11-.24-.24-.24s-.24.1-.24.24.11.24.24.24.24-.11.24-.24h0ZM53.25,40.67c0-.17-.11-.31-.24-.31s-.24.14-.24.31.11.31.24.31.24-.14.24-.31h0ZM52.67,41.42c0-.17-.11-.31-.24-.31s-.24.14-.24.31.11.31.24.31.24-.14.24-.31h0ZM49.32,44.03c-.05-.16-.19-.27-.31-.23s-.19.2-.15.36.19.26.31.23.19-.2.15-.36h0ZM51.58,42.34c0-.17-.11-.31-.24-.31s-.24.14-.24.31.11.31.24.31.24-.14.24-.31ZM51.34,44.23c0-.17-.11-.31-.24-.31s-.24.14-.24.31.11.31.24.31.24-.14.24-.31ZM49.92,42.83c0-.17-.11-.31-.24-.31s-.24.14-.24.31.1.31.24.31.24-.14.24-.31h0ZM51.34,40.37c0-.17-.11-.31-.24-.31s-.24.14-.24.31.11.31.24.31.24-.14.24-.31h0ZM48.67,39.88c0-.17-.11-.31-.24-.31s-.24.14-.24.31.11.31.24.31.24-.14.24-.31h0ZM45.85,42.4c-.08-.15-.24-.22-.35-.16s-.14.23-.06.38.24.22.35.16.14-.23.06-.38ZM47.05,40.05c0-.17-.11-.3-.24-.3s-.24.14-.24.31.11.31.24.31.24-.14.24-.31h0ZM47.97,42.81c0-.17-.11-.31-.24-.31s-.24.14-.24.31.11.31.24.31.24-.14.24-.31ZM49.92,41.01c0-.15-.06-.26-.12-.26s-.12.12-.12.26.05.27.12.27.12-.12.12-.27h0ZM48.31,41.42c0-.15-.05-.27-.12-.27s-.12.12-.12.27.05.27.12.27.12-.12.12-.27ZM44.51,42.51c-.08-.12-.19-.19-.25-.15s-.03.17.06.28.2.19.25.15.03-.17-.06-.29ZM47.6,44.23c-.09-.12-.2-.19-.25-.15s-.03.16.06.28.2.19.25.15.03-.17-.05-.29h0ZM48.52,44.32c-.08-.12-.2-.18-.25-.14-.06.04-.03.16.06.28s.2.19.25.15.03-.17-.06-.29ZM51.9,43.62c-.04-.14-.13-.24-.19-.22s-.08.15-.04.29.13.24.19.22.08-.15.04-.29h0ZM52.52,44.7c-.1-.1-.23-.15-.28-.1s0,.17.11.27.22.15.27.1,0-.17-.1-.27ZM52.21,45.01c-.1-.1-.22-.15-.27-.1s0,.17.11.27.23.15.27.1,0-.17-.11-.27ZM50.18,45.42c-.1-.1-.23-.15-.27-.1s0,.17.11.27.22.15.27.1,0-.17-.1-.27ZM50.52,45.22c-.1-.1-.22-.15-.28-.1-.05.05,0,.16.11.27s.23.15.27.1,0-.17-.11-.27h0ZM49.52,38.69c0-.17-.11-.31-.24-.31s-.24.14-.24.31.11.31.24.31.24-.14.24-.31ZM49.09,35.21c0-.19-.15-.33-.33-.33s-.33.15-.33.33c0,.09.03.17.1.24s.15.1.24.1c.19,0,.33-.15.33-.33h0ZM48.4,36.41c0-.18-.15-.33-.34-.33s-.33.15-.33.33.15.33.33.33.34-.15.34-.33h0ZM54.1,34.2c0-.13-.11-.24-.24-.24-.06,0-.12.02-.17.07s-.07.1-.07.17c0,.13.1.24.24.24s.24-.11.24-.24h0ZM71.11,32.11c0-.09-.04-.17-.12-.21s-.17-.04-.24,0-.12.12-.12.21c0,.13.11.24.24.24.06,0,.12-.02.17-.07s.07-.1.07-.17ZM56.4,34.4c0-.22-.18-.39-.39-.39s-.39.18-.39.39.18.39.39.39c.22,0,.39-.17.39-.39,0,0,0,0,0,0h0ZM49.45,33.17c0-.1-.04-.2-.12-.28s-.17-.11-.28-.11c-.22,0-.39.17-.39.39,0,0,0,0,0,0,0,.22.17.39.39.39,0,0,0,0,0,0,.1,0,.21-.04.28-.11s.12-.17.12-.28h0ZM68.01,40.85c0-.15-.19-.26-.42-.26s-.42.11-.42.26.19.26.42.26.42-.12.42-.26ZM69.11,40.18c0-.19-.15-.34-.34-.34s-.34.15-.34.34.15.34.34.34.34-.15.34-.34h0ZM66.18,38.37c0-.19-.15-.34-.34-.34s-.34.15-.35.34.16.34.35.34.34-.15.34-.34h0ZM70.61,36.74c0-.19-.15-.34-.34-.34s-.34.15-.34.34.15.34.34.34c.19,0,.34-.15.34-.34,0,0,0,0,0,0h0ZM73.03,33.56c0-.12-.07-.24-.17-.3s-.24-.06-.34,0-.17.17-.17.3c0,.19.15.34.34.34s.34-.15.34-.34Z"/>
            <path class="cls-4" d="M73.38,32.02c0-.19-.15-.34-.35-.34s-.34.15-.34.34.15.34.34.34c.09,0,.18-.03.24-.1s.1-.15.1-.24h0ZM72.69,36.84c0-.14-.15-.25-.34-.25s-.34.11-.34.25.16.25.34.25.34-.11.34-.25ZM61.47,36.24c0-.09-.04-.18-.1-.24s-.15-.1-.24-.1c-.19,0-.34.15-.34.34s.15.34.34.34.35-.16.35-.34h0ZM61.88,34.8c0-.19-.16-.34-.34-.34s-.34.15-.34.34.15.34.34.34.34-.16.34-.34ZM51.78,38.37c0-.19-.15-.34-.35-.34s-.34.16-.34.34.15.34.34.34c.09,0,.18-.04.24-.1s.1-.15.1-.24h0ZM47.17,38.71c0-.17-.13-.3-.3-.3s-.3.14-.3.3.13.3.3.3c.17,0,.3-.13.3-.3h0ZM49.97,37.68c0-.25-.15-.46-.34-.46s-.35.2-.35.46.15.46.35.46.34-.2.34-.46ZM53.01,39.5c0-.19-.08-.34-.17-.34s-.17.16-.17.34.08.34.17.34.17-.16.17-.34ZM54.63,41.85c-.12-.15-.28-.21-.35-.15s-.03.23.09.37.28.22.35.15.03-.23-.09-.37h0ZM54.04,42.47c-.1-.12-.24-.16-.31-.1s-.05.2.05.32.24.16.31.1.05-.2-.05-.32ZM50.78,34.77c0-.19-.15-.34-.34-.34s-.35.15-.35.34c0,.09.04.18.1.24s.15.1.24.1c.19,0,.34-.15.34-.34h0ZM71.72,30.56c0-.19-.15-.34-.34-.34-.09,0-.18.03-.25.1s-.1.15-.1.24.04.18.1.24.15.1.25.1c.19,0,.34-.15.34-.34h0ZM71.38,28.58c0-.19-.16-.34-.35-.34s-.34.15-.34.34.15.34.34.34.35-.15.35-.34ZM72.19,26.72c0-.19-.08-.34-.18-.34s-.18.15-.18.34.08.34.18.34.19-.15.19-.34h0ZM69.88,25.68c0-.19-.08-.34-.18-.34s-.19.16-.19.34.08.34.19.34.18-.15.18-.34ZM71.21,23.53c.05-.18.01-.35-.08-.38s-.22.1-.27.28-.01.35.08.38.22-.1.27-.28ZM71.41,22.4c.15-.12.22-.28.16-.35s-.23-.05-.39.07-.22.27-.16.35.23.05.39-.06h0ZM70.72,22.01c.15-.12.22-.28.16-.35s-.24-.05-.38.07-.22.28-.16.35.24.05.39-.06h0ZM67.5,22.42c.15-.12.2-.31.1-.43s-.29-.12-.44,0-.2.31-.1.42.29.12.44,0h0ZM71.93,21.24c.15-.12.22-.28.16-.35s-.24-.05-.38.06-.22.27-.16.35.23.05.38-.06ZM69.83,21.66c.22-.17.35-.37.29-.45s-.29,0-.51.16-.35.37-.29.45.29,0,.51-.17h0ZM69.47,20.99c.22-.17.35-.38.29-.45s-.29,0-.51.16-.35.37-.29.45.29,0,.51-.17h0ZM72.46,22.91c.15-.12.22-.28.16-.35s-.24-.05-.39.06-.22.28-.16.36.23.05.38-.06h0ZM69.51,23.28c.04-.14,0-.27-.1-.3s-.21.06-.25.2,0,.27.11.3.21-.06.25-.2h0ZM68.03,32.12c0-.25-.2-.44-.44-.44s-.44.2-.44.44.2.44.44.44c.24,0,.44-.19.44-.44,0,0,0,0,0,0h0ZM61.24,33.18c0-.21-.17-.39-.39-.39s-.38.17-.38.39.17.38.38.38.39-.17.39-.38ZM51.55,33.34c0-.21-.17-.38-.38-.38s-.38.17-.38.38.17.38.38.38c.1,0,.2-.04.27-.11s.11-.17.11-.27h0ZM68.34,38.64c-.03-.13-.2-.2-.39-.16s-.31.18-.28.31.2.2.39.16.31-.18.28-.31h0ZM70.27,37.89c-.03-.13-.2-.2-.39-.16-.18.04-.31.18-.28.31s.2.2.39.16.31-.18.28-.31h0ZM73.61,35.59c-.02-.1-.15-.15-.29-.12s-.23.14-.21.23.15.15.29.12.23-.14.21-.23h0ZM73.75,35.02c-.02-.1-.15-.15-.29-.12s-.23.14-.21.23.15.15.29.12.23-.13.21-.23h0ZM68.41,36.96c.08-.1.03-.28-.11-.4s-.33-.14-.42-.03-.03.28.11.4.33.14.42.03h0ZM70.73,34.34c.12-.05.17-.23.1-.41s-.22-.28-.35-.24-.17.23-.11.41.22.28.35.24h0ZM69.4,31.01c.17.03.35-.14.4-.38s-.04-.48-.2-.51c-.17-.04-.35.13-.4.38s.04.47.2.51h0ZM74.13,33.87c.12.05.28-.05.35-.23s.03-.36-.09-.41c-.13-.05-.28.05-.36.23s-.03.36.09.41h0ZM57.2,32.1c.03-.13-.09-.27-.28-.31s-.36.02-.39.16.1.27.28.31.36-.03.39-.16h0ZM54.78,35.22c.03-.13-.09-.27-.28-.32s-.36.03-.39.16c-.03.13.09.27.28.31s.36-.02.39-.15h0ZM70.73,39.19c-.04-.17-.28-.25-.54-.19s-.44.24-.4.41.28.25.54.2.44-.25.4-.41h0ZM72.13,38.35c-.03-.14-.23-.22-.43-.17s-.35.2-.32.34.23.22.44.17.35-.2.32-.34h0ZM63.9,37.38c.03-.13-.09-.27-.28-.32s-.36.02-.39.15.09.27.27.32.36-.02.39-.15h0ZM64.26,35.85c.06-.23-.13-.47-.41-.54s-.55.06-.61.29.13.47.41.54.55-.06.61-.29h0ZM66.66,34.65c.05-.19-.14-.4-.42-.47s-.55.03-.59.22.14.4.43.47.54-.03.59-.22h0ZM64.19,33.9c.05-.23-.13-.47-.41-.54s-.56.06-.61.29.12.47.4.54.56-.06.61-.29h0ZM64.39,31.64c.02-.24-.24-.45-.59-.47s-.63.15-.65.38.24.45.59.47c.34.03.63-.14.65-.38h0ZM66.68,36.22c-.17-.17-.47-.14-.67.07s-.24.51-.07.67.47.14.67-.07.24-.51.07-.67h0ZM68.33,33.76c-.2.12-.24.42-.09.67s.43.35.64.23.24-.42.09-.67-.44-.35-.64-.23h0ZM58.58,33.66c.04-.18-.1-.38-.32-.43s-.44.05-.48.23.1.37.32.43.44-.05.48-.23h0ZM41.32,37.78c.04-.15-.11-.31-.33-.37-.23-.05-.43.02-.47.17s.12.31.34.36c.22.06.43-.02.46-.17h0ZM58.99,32.71c.04-.18-.1-.38-.32-.43s-.44.05-.48.23.1.37.32.43.44-.05.48-.23h0ZM66.57,31.37c.04-.18-.1-.38-.32-.43s-.44.05-.48.23.1.38.32.43.44-.05.48-.23h0ZM65,29.21c-.06-.18-.33-.25-.61-.15s-.46.31-.39.49.33.25.61.15.45-.31.39-.49ZM50.75,22.49c-.12.05-.15.29-.05.52s.28.39.4.34.15-.28.05-.52-.28-.39-.4-.34ZM52.65,22.86c-.12.05-.15.29-.05.52s.28.39.4.34.15-.28.05-.52-.28-.39-.4-.34h0ZM51.62,20.68c-.12.05-.15.29-.05.52.09.24.28.39.4.33s.15-.28.05-.52-.28-.39-.4-.34h0ZM52.04,24.07c-.1.04-.14.17-.09.28s.17.18.26.14.14-.17.09-.28-.17-.17-.26-.14h0ZM51.38,19.62c-.1.04-.12.21-.05.38s.21.28.31.24.12-.21.05-.38-.21-.28-.3-.24h0ZM53.99,21.17c-.09.05-.09.22,0,.39s.24.25.33.2.09-.23,0-.39-.24-.25-.33-.2h0ZM53.88,20.55c-.09.05-.1.22,0,.39s.24.25.33.2.1-.22,0-.39-.24-.25-.33-.2h0ZM53.13,19.64c-.13.07-.17.26-.08.43s.27.23.41.16.17-.27.08-.43-.27-.24-.4-.16h0ZM51.42,18.88c-.13.07-.17.26-.08.43s.27.23.4.16.17-.26.08-.43-.27-.24-.4-.16h0ZM49.2,18.59c-.13.07-.14.3-.03.51s.32.32.45.24.14-.3.03-.51-.32-.31-.45-.24h0ZM48.1,20.47c-.13.07-.15.3-.03.51s.32.31.45.24.14-.3.03-.51-.32-.31-.45-.24ZM47.55,18.96c-.13.08-.17.27-.08.43s.27.23.4.16.17-.27.08-.43-.27-.23-.4-.16h0ZM49.72,20.24c-.13.05-.15.28-.05.52s.28.39.4.34.15-.28.05-.52-.27-.39-.4-.34Z"/>
            <path class="cls-4" d="M51.17,24.28c-.1.04-.13.21-.06.38s.21.27.31.23c.1-.04.13-.21.06-.38s-.21-.27-.31-.23ZM49.24,23.92c-.1.05-.1.23,0,.39.09.16.24.24.34.19s.1-.23,0-.39-.24-.24-.34-.19h0ZM45.99,23.59c-.09.06-.1.23,0,.39s.24.24.34.19.1-.23,0-.39c-.09-.16-.24-.24-.34-.19h0ZM46.21,20.95c-.05.1.03.25.19.33s.33.08.39-.02-.03-.24-.19-.33-.33-.08-.39.01h0ZM43.89,20.28c.07.06.26-.05.41-.24s.23-.39.16-.45-.25.05-.41.24-.23.39-.16.45h0ZM42.51,20.6c.07.06.25-.05.41-.24s.23-.39.16-.45-.26.05-.41.24c-.16.19-.24.39-.17.45h0ZM47.57,23.59c-.13.07-.17.26-.07.42s.27.23.4.15.17-.27.07-.43-.27-.23-.4-.15h0ZM47.08,22.34c-.13.07-.16.26-.07.42s.27.23.4.15.16-.27.07-.42-.27-.23-.4-.15h0ZM49.26,25.11c-.1.11-.03.34.16.5s.42.21.52.1.02-.33-.16-.5-.42-.21-.52-.1h0ZM47.49,25.13c-.1.11-.03.33.16.5s.42.21.52.09.03-.33-.16-.5-.42-.21-.52-.1h0ZM60.37,29.45c-.06-.18-.3-.25-.55-.17s-.39.29-.33.47.3.25.55.17.39-.29.33-.47h0ZM59.82,28.18c-.05-.16-.27-.22-.49-.15s-.35.26-.3.41.27.22.49.15.35-.26.3-.41h0ZM52.46,34.56c-.08,0-.16.18-.17.41s.04.42.12.42.16-.18.17-.41-.04-.42-.12-.42h0ZM59.28,27.15c-.05-.16-.25-.23-.45-.16s-.31.24-.26.4.25.23.44.16.31-.24.26-.4h0ZM57.91,26.07c-.06-.16-.33-.2-.63-.1s-.49.3-.43.46.33.2.62.1c.29-.1.48-.3.44-.46h0ZM60.03,24.83c-.05-.16-.33-.2-.62-.1s-.49.3-.44.46.33.2.62.1.49-.3.43-.46h0ZM61.7,26.49c-.05-.16-.25-.23-.44-.16-.2.07-.31.24-.26.4s.25.23.45.16.31-.25.26-.4h0ZM61.34,25.56c-.05-.16-.26-.23-.45-.16s-.31.24-.26.4.25.23.44.16.31-.25.26-.4h0ZM48.99,22.5c-.15.05-.22.29-.14.54s.27.41.43.36.22-.29.13-.54-.27-.41-.42-.36h0ZM63.66,24.45c-.05-.16-.27-.23-.48-.15s-.35.26-.3.41.27.23.49.15.35-.26.29-.42h0ZM66.05,23.16c-.07-.19-.29-.29-.51-.22s-.34.29-.27.48.29.29.5.22.34-.29.28-.48h0ZM64.07,23.02c-.07-.19-.29-.29-.51-.22s-.34.29-.27.48c.06.19.29.29.51.22s.34-.29.27-.48h0ZM62.12,24.28c.08-.18-.1-.43-.4-.55s-.6-.08-.67.1.1.43.4.55c.29.13.59.08.67-.1h0ZM56.12,26.49c-.05-.16-.25-.23-.44-.16s-.31.24-.26.4.25.23.44.16.31-.25.26-.4h0ZM67.19,29.33c.04-.18-.1-.37-.32-.43s-.44.05-.48.23.1.38.32.43c.23.06.44-.05.49-.23h0ZM67.93,26.38c.19-.01.33-.27.31-.57s-.18-.54-.37-.54-.33.27-.31.57.18.55.36.54h0ZM69.16,28.98c.18-.04.25-.39.16-.78s-.32-.67-.5-.62-.25.39-.16.78.32.67.5.62h0ZM59.4,31.37c.05-.18-.1-.38-.32-.43s-.44.05-.48.23.1.38.32.43.44-.05.48-.23h0ZM61.58,31.41c.03-.23-.13-.44-.35-.47-.23-.03-.44.13-.47.36s.13.44.35.47c.23.03.44-.13.47-.36ZM62.7,29.68c.03-.2-.12-.39-.32-.42-.2-.03-.39.12-.41.32,0,0,0,0,0,0-.03.2.11.39.31.42s.39-.12.42-.32h0ZM63.57,27.81c.06-.26-.04-.51-.23-.55s-.39.14-.44.4.04.51.23.55.39-.14.45-.4ZM51.72,36.39c.05-.22-.03-.42-.19-.46s-.32.11-.37.33c-.05.22.03.42.19.46s.32-.11.37-.33h0ZM65.8,27.3c.24-.12.37-.36.28-.53s-.35-.21-.59-.09-.37.36-.29.53.35.21.59.09h0ZM65.46,25.5c.24-.12.37-.35.28-.53s-.35-.21-.59-.09-.37.36-.28.53.35.22.59.09h0ZM71.97,25c.19-.2.22-.46.09-.59s-.4-.08-.59.12c-.19.2-.22.46-.09.59s.4.08.58-.12h0ZM61.96,27.97c.02-.19-.09-.37-.26-.39s-.33.11-.35.31.09.37.26.39.32-.11.35-.31h0ZM53.43,37.08c.03-.19-.04-.36-.16-.38s-.23.13-.25.32.04.36.16.38.23-.13.25-.32h0ZM45.75,34.98c-.16-.1-.35-.11-.41-.01s.02.26.19.37.35.11.41.01-.02-.26-.19-.37h0ZM48.17,37.62c-.17-.1-.35-.11-.41-.01s.02.26.19.36.35.11.41.01-.02-.26-.19-.36h0ZM45.9,37.51c-.16-.1-.35-.11-.41-.01s.02.26.18.36.35.11.41.01-.02-.26-.19-.36h0ZM46.08,36.18c-.17-.11-.35-.11-.41-.01s.02.26.19.36.35.11.41.01-.02-.26-.18-.36ZM44.01,40.61c-.19.04-.32.19-.28.33s.21.21.4.17.32-.19.29-.33-.21-.21-.4-.17h0ZM42.96,37.85c-.16-.1-.35-.11-.41-.01s.02.26.18.37.35.11.41.01-.02-.26-.19-.36h0ZM44.61,40.01c-.17-.1-.35-.11-.41-.01s.02.26.19.36.35.11.41.02-.02-.26-.18-.37ZM43.02,39.29c-.19-.05-.37,0-.39.11s.1.24.29.29.37,0,.4-.11-.1-.24-.29-.29h0ZM45.84,41.27c-.22.12-.35.32-.28.45s.31.14.53.03.35-.32.28-.45-.3-.14-.53-.03h0ZM41.44,36.41c-.17-.1-.35-.11-.41-.01s.02.26.19.37.35.11.41.01-.02-.26-.18-.36ZM43.4,36.87c-.17-.1-.35-.11-.41-.01s.02.26.18.36.35.11.41.01-.02-.26-.19-.37ZM43.04,40.96c-.17-.02-.31.06-.32.18s.11.22.28.24.31-.06.32-.18-.11-.22-.28-.24ZM43.87,35.77c-.23-.15-.48-.16-.56-.02s.03.35.26.5.48.15.56.02-.03-.35-.26-.5ZM63.46,26.07c.02-.19-.09-.37-.26-.39s-.32.12-.35.31.09.37.26.39.33-.12.35-.31h0ZM67.88,23.99c.04-.26-.07-.48-.24-.5s-.33.17-.36.42.07.48.24.5.33-.16.36-.42h0ZM72.23,35.8c.15-.11.17-.35.03-.53s-.37-.24-.52-.13-.16.35-.03.54c.13.19.36.24.51.13ZM59.66,37.37c0-.19-.15-.34-.35-.34s-.34.15-.34.34.16.34.34.34.34-.15.34-.34h0ZM63.68,39.16c0-.25-.2-.45-.46-.45s-.45.2-.45.45.2.45.45.45c.12,0,.24-.05.32-.13s.13-.2.13-.32h0ZM61.4,37.53c-.17-.22-.43-.29-.58-.17s-.14.39.03.6.43.29.58.17.14-.39-.03-.6h0ZM58.43,35.58c-.17-.22-.43-.29-.58-.18s-.14.39.03.61.43.29.58.17.14-.39-.03-.6ZM74.45,32c-.02-.1-.15-.15-.29-.12-.14.03-.23.14-.21.23s.15.15.29.12.23-.14.21-.23h0ZM74.58,31.43c-.02-.1-.15-.15-.29-.12s-.23.13-.21.23.15.15.29.12.23-.14.21-.23h0ZM73.5,29.71c-.02-.09-.15-.15-.29-.12s-.23.14-.21.23.15.15.29.12.23-.14.21-.23h0ZM73.63,30.5c-.02-.1-.15-.15-.29-.12s-.23.13-.21.23.15.15.29.12.23-.13.21-.23h0ZM74.58,30.5c-.02-.1-.15-.15-.29-.12s-.23.13-.21.23.15.15.29.12.23-.13.21-.23h0ZM74.7,29.71c-.02-.09-.15-.15-.29-.12s-.23.14-.21.23.15.15.29.12c.13-.03.23-.14.21-.23h0ZM73.25,28.53c-.03-.1-.15-.15-.29-.12s-.23.14-.21.23.15.15.29.12c.13-.03.23-.14.21-.23Z"/>
            <path class="cls-4" d="M74.51,28.34c-.02-.1-.15-.15-.29-.12s-.23.14-.21.23.15.15.29.12.23-.14.21-.23h0ZM74.45,27.49c-.02-.09-.15-.15-.29-.12s-.23.14-.21.23.15.15.29.12.23-.13.21-.23h0ZM73.19,27.86c-.02-.1-.15-.15-.29-.12s-.23.13-.21.23.15.15.29.12.23-.14.21-.23h0ZM73.89,26.47c-.02-.09-.15-.15-.29-.12s-.23.14-.21.23.15.15.29.12.23-.14.21-.23h0ZM73.84,25.81c-.02-.1-.15-.15-.29-.12s-.23.14-.21.23.15.15.29.12.23-.14.21-.23h0ZM73.37,24.43c-.01-.06-.1-.1-.19-.08s-.15.09-.13.15.1.1.19.08.15-.09.14-.15h0ZM73.01,23.76c-.01-.06-.1-.1-.18-.08s-.15.09-.14.15.1.09.19.08c.09-.02.15-.09.14-.15h0ZM55,38.45c.02-.1-.08-.2-.22-.22s-.27.03-.29.13.08.2.22.23.26-.03.28-.13h0ZM55.03,37.79c.02-.1-.08-.2-.22-.23s-.26.03-.28.13.08.2.21.22.27-.03.28-.12ZM54.43,39.01c.03-.14-.08-.28-.25-.31s-.32.06-.34.19c-.03.14.08.28.24.31s.32-.05.34-.19h0ZM54.82,40.91c.03-.14-.08-.27-.24-.31s-.32.05-.35.19.08.27.24.31c.16.03.32-.06.34-.19h0ZM54.21,44.09s-.05-.19-.19-.34-.29-.25-.33-.21.05.19.19.34.29.25.33.21h0Z"/>
          </g>
          <path class="cls-47" d="M24.91,36.98l1.91,3.09,3.78,5.43,3.31,5.01,2.12,3.49,1.54,1.79v-.41l-.19-.25v-.78l-1.04-2.06-1.87-2.91-4.47-7.15-2.84-5.21-.35-.76-2.47-.2.56.93Z"/>
          <path class="cls-17" d="M24.59,36.11l3.63,5.21,3.19,4.79,3.01,4.78,2.33,3.52.07.11-2.4-4-2.48-4.07-1.72-2.6-1.66-2.48-1.34-1.86-1.16-1.69-1.25-1.73h-.22Z"/>
          <path class="cls-50" d="M30.53,36.65l1.71,2.85,3.4,5.01,2.98,4.62,1.91,3.22,1.38,1.65v-.38l-.17-.23v-.72l-.93-1.9-1.68-2.68-4.01-6.6-2.56-4.81-.31-.7-2.22-.19.51.86Z"/>
          <path class="cls-16" d="M30.24,35.85l3.26,4.81,2.87,4.42,2.7,4.41,2.09,3.25.06.1-2.16-3.69-2.23-3.75-1.54-2.4-1.49-2.29-1.21-1.72-1.04-1.56-1.12-1.59h-.2Z"/>
          <path class="cls-49" d="M32.05,36.38l1.67,2.73,3.3,4.81,2.9,4.44,1.86,3.1,1.35,1.59v-.36l-.17-.22v-.69l-.91-1.83-1.64-2.58-3.91-6.34-2.49-4.62-.3-.67-2.16-.18.49.82Z"/>
          <path class="cls-15" d="M31.77,35.61l3.17,4.62,2.79,4.25,2.63,4.24,2.04,3.12.06.1-2.1-3.54-2.17-3.61-1.5-2.3-1.45-2.2-1.17-1.65-1.01-1.49-1.09-1.53h-.19Z"/>
          <path class="cls-56" d="M27.02,36.98l1.91,3.09,3.73,5.85,3.06,4.91,1.85,3.4.92,1.09.05-.56-.73-1.88-1.69-3.47-4.02-7.2-2.84-5.21-.34-.76-2.47-.2.56.92Z"/>
          <path class="cls-21" d="M26.91,36.05l3.29,5.17,2.99,4.92,2.81,4.9,2.18,3.61.07.11-2.24-4.09-2.31-4.17-1.61-2.66-1.55-2.55-1.27-1.91-1.09-1.73-1.11-1.55-.17-.05Z"/>
          <path class="cls-55" d="M28.43,36.7l1.9,3.08,3.73,5.86,3.07,4.91,1.85,3.4,1.26.91v-.6l-1.02-1.66-1.69-3.47-4.01-7.2-2.84-5.21-.35-.76-2.47-.2.56.93Z"/>
          <path class="cls-57" d="M37.39,40.75l-.74-.87-1.55-2.11-1.03-1.76,1.16-.35.29-.05.7.72.27,2.06.9,2.2v.16Z"/>
          <path class="cls-62" d="M21.64,35.47l2.61,6.27,2.73,6.18,1.39,3.68,1.53,3.57.46.73.26-.73-4.05-11.71-2.56-8.03-2.37.03Z"/>
          <path class="cls-21" d="M22.18,35.2l2.34,5.67,2.08,5.37,1.91,5.32,1.52,3.94.05.12-1.48-4.42-1.55-4.51-1.12-2.9-1.08-2.78-.91-2.11-.77-1.89-.82-1.73-.17-.08Z"/>
          <path class="cls-58" d="M19.34,35.72l1.63,5.13,2.24,6.13,1.14,3.84.24,1.38,1.68,3.21.19.35-.33-2.18v-2.43l-3.95-15.31-2.84-.13Z"/>
          <path class="cls-21" d="M19.4,34.73l2.09,5.76,1.85,5.45,1.68,5.39,1.35,4,.04.12-1.29-4.48-1.35-4.57-1-2.95-.96-2.82-.82-2.15-.69-1.92-.74-1.76-.16-.09Z"/>
          <path class="cls-63" d="M16.79,34.7v2.51l1.78,7.36,1.4,5.35,1.24,3.67h.43l-.43-1.67.43-1.1-1.75-7.7-.49-4.54.15-3.44-2.75-.44Z"/>
          <path class="cls-21" d="M17.13,34.8v2.24l1.25,5.36,1.25,4.44,1.51,6.59.17-.14-.95-4.08-1.78-6.98-1.22-5.13.06-2.3h-.28Z"/>
          <path class="cls-28" d="M13.44,33.85l-.3,5.71.15,6.86.15,2.5.26,3.49.26.43.46-.4v-.36l.46-.89.33-15.08.59-1.54-2.37-.72Z"/>
          <path class="cls-21" d="M13.69,33.78l.27,5.2.18,4.94.1,4.9.13,3.62v.11s-.03-4.08-.03-4.08l-.05-4.16-.1-2.67-.1-2.56-.12-1.93-.08-1.74-.14-1.57-.07-.07Z"/>
          <path class="cls-29" d="M10.71,33.25l-.72,1.09-3.13,9.81-1.05,4.11.33.13,1.68-2.48,1.02-1.8,3.19-8.68.72-1.86-1.91-1.45-.13,1.12Z"/>
          <path class="cls-30" d="M10.45,31.54l-.89.79-3.29,3.52-1.68,2.32-.56.8-1.09,1.28.46.22,1.45-.58,2.01-3.26,2.2-2.34,1.68-1.3.57-.52-.86-.94Z"/>
          <path class="cls-21" d="M11.28,32.91l-1.38,4.09-1.36,3.87-1.4,3.82-1,2.83-.03.09,1.2-3.17,1.21-3.24.74-2.09.7-2,.5-1.52.47-1.37.38-1.25-.03-.06Z"/>
          <path class="cls-27" d="M9.15,30.11c-.32-.57,1.32-3.84,1.32-3.84l3.07-5.59c.27-.28-1.01-4.64.15-4.95,1.37-.36,5.82-.84,6.57-.93,2.08-.24,4.6.5,6.65.85,2.72.47,4.8,1.62,4.8,1.62,0,0,2.09,1.78,4.56,2.86,1.85.81,3.56.77,4.33,1.01,1.75.54,3.95,3.39,3.95,3.39l4.99,1.91c1.36.33,5.73.26,6.08.59s1.14,1.99,1,2.77c-.15.79-.29,1.63-.87,2.63s-1.14,1.32-1.72,1.05-1.89-.31-2.67-.54-3.78-.42-4.92-.06-1.54.99-2.32,1.4-7.12,1.46-9.65,1.72-8.84.14-11.58,0-6.74-1.12-6.74-1.12c0,0-2.71-.8-3.75-1.34s-2.94-2.88-3.27-3.44h0Z"/>
          <path class="cls-23" d="M9.37,30.1l-.22.66-.44-.29-.37-.81c-.2-.44-.05-.65-.43-.97-.62-.53-1.03-.12-1.48.38h-.73l-.73.15c-.22.05-.65-.16-.88-.22,0-.07.07-1.79.51-1.46l-.58-.44-.59-.66v-.37l.08-.95c.09-1.22-.57-1.02-1.54-1.02l-.81-.88c-.58-.64-.73-1.51-.92-2.32-.08-.32-.24-.71-.23-1.02,0-.18.26-.54.2-.68l-.22-.59.29-.59c.31-.61,1.77-1.07,2.42-1.32l3.81-.66.95-.51c.77-.41,1.95-.22,2.79-.2.5.01,1.71-.18,2.11.05,1.07.61,1.23,1.35,1.54,2.49l.36,1.9-.22,1.17-.66,1.32c-.48.66-1.07,1.24-1.42,1.99-.19.41-.25,1.11-.55,1.45l-1.1,1.25c-.59.66-.8,1.41-.95,2.27v.88h0Z"/>
          <path class="cls-3" d="M5.09,24.53c-.38-.2-.53-.69.04-1,.46-.25,1.49.02,1.02.68-.32.45-.76.48-1.06.32h0Z"/>
          <path class="cls-35" d="M4.03,17.45c-.54.08-.86-.42-1.03-.98l.07-.51h.37l-.29-.59.37-.15-.29-.37v-.37l.37-.07-.22-.66h.59l.07-.22.44-.44.29.44-.07.44.51-.29.15.37-.22.29.44.15-.51.44h.58l-.29.44-.51.15.73.15-.14.29-.44.22.07.73-.59.37c-.16.1-.3.16-.44.17h0Z"/>
          <path class="cls-25" d="M3.88,15.23l.14-.22-.22-.37v-.59l.44.66v1.1l-.22.22-.14-.81Z"/>
          <path class="cls-33" d="M10.75,19.22c.1-.13,1.71-2.21,1.92-1.94.1.16.18.33.22.51l-1.21,1.66c-.6.79-1.18.25-1.82.76-.34.28-.71,1.32-.97,1.73-.39.62-.59,1.25-.56,1.97.02.66,0,.94-.2,1.61-.32,1.03-.25,2.06-.22,3.13-1.11-1.2-.83-2.15-.21-3.43.33-.7.22-1.34.07-2.07-.22-1.08-.16-1.4.42-2.35.25-.41.29-.91.57-1.29.4-.55,1.31-.8,1.91-1.03.06.25.08.5.08.75h0Z"/>
          <path class="cls-36" d="M8.42,26.36l.22-1.1c.2-1.06.58-2.11,1.19-3.01.47-.69,1.19-1.1,1.67-1.75.53-.7.8-1.14,1.61-1.47-.48.19-1.14,1.47-1.54,1.9-.91,1-1.57,2.11-2.2,3.3l-.37,1.1-.59,1.02h0Z"/>
          <g>
            <path class="cls-34" d="M8.55,29.74c-.52-1.07-.59-2.1.61-3.09.61-.5.6-.66.85-1.43.33-1.01,1.05-1.67,1.59-2.56.6-.99.78-1.48,1.97-1.97.31,1.07-.35,1.69-.9,2.51l-.82,1.32c-.54,1.08-1.43,1.7-2.13,2.63-.8,1.07-.58,2.37-.58,3.62-.23-.34-.44-.68-.6-1.01h0Z"/>
            <path class="cls-32" d="M11.28,16.62l-.81.08-1.1.58c-.46.36-1.11.67-1.17,1.32-.01.11-.5.43-.59.6-.14.27-.12.58-.14.87l-.14,1.24.66-1.32.22-.74.52-.8.8-.66,1.1-.66.66-.52h0Z"/>
          </g>
          <path class="cls-31" d="M10.91,15.74c-.49.36-1.12.37-1.59.76-.37.3-.66.78-.97,1.15,0,0,2.54-1.89,2.56-1.9h0Z"/>
          <path class="cls-71" d="M6.8,23.32c-.18,0-.36-.03-.43-.11-.18-.19-.12-.7-.14-.95l-.14-1.03.22-1.9c.13-1.13.42-1.51,1.17-2.34l1.39-1.54.51.22-.07.44-1.03.95-.87,1.9c-.05.1-.24.12-.29.22-.15.26-.01,1.18-.08,1.55l.07.95c.05.59.57,1.64-.3,1.65h0Z"/>
          <path class="cls-72" d="M5.32,19.82c-.43-.29-.19-.79-.12-1.22l.07-.81.8-.59c-.16.71-.36,1.43-.36,2.12,0,.22-.2.42-.39.49h0Z"/>
          <g>
            <path class="cls-73" d="M4.83,22.33l-.08-.11-.28-.4.07-1.32-.73-.81c-.36-.42-1.04-2.44.08-2.27l.36,1.17v.59l.36.37v.51l.3.51.15.88-.22.88h0Z"/>
            <path class="cls-67" d="M3.66,23.8l-.15-.88c-.43-.62-.51-.85-.51-1.61,0-.46-.9-1.26-1.25-1.61l-.37-.88-.07-.88.59.37.29.44c.52.78,1.18,1.31,1.32,2.27.16,1.07.36,1.73.15,2.79h0Z"/>
            <path class="cls-68" d="M2.56,22.48c-.18-.18-.2-.56-.36-.77-.42-.55-1.09-.86-1.55-1.43l-.22-.44c.14.27-.03.6.11.88.11.23.44.42.63.59l.66.44s.69.69.73.73h0Z"/>
            <path class="cls-69" d="M.88,19.26l.51.81,1.02.81c-.67-.53-1.54-.62-1.54-1.61h0Z"/>
          </g>
          <path class="cls-70" d="M7.03,24.09l-.59.88.29.36c.08.1-.23.73-.25.91-.09.73.28,1.19.47,1.88-.73-.9-1.13-1.26-2.19-1.68.39.16,1.06-.13,1.3-.44.48-.63-.26-.81-.01-1.31.11-.21.76-.46.98-.6Z"/>
          <path class="cls-25" d="M5.46,25.1l-.7,1.34-.45-.08.44.81-.81-.66c-.37-.3-.13-1.47.22-1.76l.37-.29.44.37c.13.11.34.19.49.27h0Z"/>
          <path class="cls-64" d="M10.73,32.11l.37-1.1,1.06-1.28c.92-.98,1.6-2.24,2.39-3.33.32-.45.62-.79,1.1-1.08.45-.27,1.13-.51.17-.65v-.66s.15-.66.29-.88c.11-.16,1.39-.58,1.54-.44l-.29-.29v-.66l-3.08-1.32-.95,1.1-.8,1.47-1.39,1.91-1.24,2.05c-.26,1.04-.5,2.34-.62,3.4l.26.33.37-1.17c.09-.3.53-.62.71-.88.42-.58.68-1.25.97-1.9l.51-.37.73-.66.22-.66.59-.66v-1.03c0-.3.12-.72.37-.88.2.48.53.35.95.3.1-.01.2,0,.3,0-.28.44-.68.94-.81,1.46l-.14.59-.73.95-2.93,3.73-.52.73-.11.99.73.87h0Z"/>
          <path class="cls-65" d="M12.19,33.43l.7-.55c.23-1.47,1.09-2.71,2.05-3.81l1.02-1.17c.14-.17-.04-.62.07-.81.36-.64,1.21-.91,1.61-1.54l.81-1.24,1.02-1.24c.82-.99,1.54-2.13,2.08-3.29.2-.45.81-1.42.78-1.91l.15,1.9-.58,1.24c-.69,1.47-1.81,2.71-2.64,4.1l-.44,1.1-.29.66c-.74.56-.9.95-1.4,1.72-.75,1.15-1.81,2.03-2.55,3.19l-.37,1.1.29,1.54-1.32-.51-.99-.48h0Z"/>
          <path class="cls-66" d="M16.92,35.04l-.22-1.06c.21-.68.39-1.48.85-2.1.5-.67,1.21-1.17,1.63-1.91.28-.48.45-1.04.67-1.56l.59-.95.58-1.39.81-1.32.81-.95c.67-.8,3.21-3.81,2.04-4.83-.25.17-.4.46-.57.73l-.95,1.76-1.39,2.12-1.1,1.53c-.26.37-.26.92-.5,1.31-.55.9-1.48,1.58-2.07,2.51l-.81,1.17c-.24.34-.42.84-.69,1.18s-.81.47-1.06.84c-.27.4,0,.72-.15,1.05l-.58,1.32.95.29,1.17.26h0Z"/>
          <path class="cls-81" d="M18.89,35.58v-1.61c.82-2.11,2.71-3.66,3.81-5.64l.88-2.34.51-2.2.22-.81.44-.15s-.29,2.55-.33,2.77c-.09.49-.14,1.03-.3,1.5-.16.46-.6.9-.69,1.37l-.37,1.83-.8,2.19-.51.95-.22,1.54.22,1.02-.73-.15-.22-.95c-.2-.9.42-1.81.81-2.56.18-.34.3-.95.25-1.31-.28.13-.52.37-.77.58-.65.54-1.27,1.82-1.38,2.67-.02.19.03,1.34.28,1.36l-1.1-.08h0Z"/>
          <path class="cls-82" d="M24.8,36.11l-.2-1.18c-.25-1.48.27-2.49,1.1-3.74l.59-2.05c.21-.73.58-1.35.69-2.11.07-.53.07-1.09.12-1.62.09-.88.43-1.73.49-2.61.05-.7-.54-1.41-.49-1.99.08-.91.58-1.62.82-2.45.15-.5.19-1.06.28-1.58h.73l.07,1.17-.66,2.2-.07,1.32.07,2.12c.06,1.54-.3,2.91-.58,4.39l-.3,1.54-.66,1.68-.25,2.16c-.06.41-.33,1.05-.24,1.46.1.45.67,1.03.93,1.43l-2.44-.14h0Z"/>
          <path class="cls-83" d="M27.75,36.17l2.34.07c-.3-.4-.81-.86-.85-1.33-.06-.85.37-1.56.69-2.31s.4-1.41.44-2.22l.44-1.32-.15-.88.29-1.9c.2-1.27.19-2.57.15-3.85-.02-.57-.24-1.47-.08-2.01l.51-1.68c.15-.53-.56-.59-.85-.51-.17.04-.26,1.48-.32,1.68l-.36,1.32c-.18.64-.47,1.98-.37,2.64l.22,1.47.15,1.32-.94,3.13c-.18.62-.59,1.51-.59,2.14v.73l-.58,1.09c-.48.9-.45,1.31-.14,2.42h0Z"/>
          <g>
            <path class="cls-77" d="M32.51,36.14l-.37-1.06c-.37-1.18.12-2.54.44-3.73l.51-1.98c.24-.92.43-1.87.49-2.82.01-.31.13-.97-.02-1.25-.16-.31-.53-.2-.61-.58-.08-.39.29-.98.29-1.42l.07-4.32v-.44l.84.44.11,1.17c0,.42.52.81.68,1.17.49,1.08.32,2.77.42,3.95l-.14,2.05-.37,1.61-.29,1.98c-.22,1.51-.31,3.11-.33,4.58l.44.51-2.16.15h0Z"/>
            <path class="cls-78" d="M38.66,32.62c.14-.6.45-1.19.67-1.7.44-.99.55-2.2.72-3.26.1-.58.16-1.18-.03-1.75-.14-.42-.5-.76-.54-1.23-.07-.8.62-1.4.74-2.15.07-.44-.17-1.12-.28-1.56.33.04.81.22,1.06.29.38.11-.01,1.82,0,1.32.02-.77.15,1.69,0,2.45l-.15.59.08.81.07.8-.07.73-.22.51.08.73-.29,1.17-.15,1.76.15.81v1.02l.37,1.1-1.76.33-.22-.99-.22-.73c-.1-.34-.08-.7,0-1.06h0Z"/>
          </g>
          <path class="cls-79" d="M35.59,35.88c-.29.02-.38-2.08-.44-2.42l-.15-.8c.04-.47,0-.98.22-1.42.14-.27.68-.53.73-.78l.22-1.1v-.81l-.15-.51c-.04-.13-.41-.28-.47-.57-.05-.26.12-.52.18-.76.23-.93.36-1.97.36-2.99l.07-1.32v-1.54l-.07-.81,1.83.59.14,1.61c.06,1.28-.15,2.61-.29,3.88l-.15,1.32c.04.86.03,1.7-.07,2.56l-.29,1.68c-.19,1.06-.29,1.91,0,3l.44.88-1.17.22-.95.07h0Z"/>
          <path class="cls-80" d="M41.7,34.93c.18-.05-.23-1.75-.26-1.9l-.15-.88v-.73l.58-.73-.15-.95.44-.66-.15-.58-.37-.44s.33-.42.35-.49c.13-.5-.1-1.61-.13-2.15-.02-.34.31-3.38.15-3.52l1.17,1.06-.22.77.22,1.61c.09.64-.13,1.54-.07,2.27l-.07.44.07.44.15.88c.14.83-.13,1.98-.22,2.85l.15.95.07.66.29.66s-1.76.42-1.87.44h0Z"/>
          <path class="cls-74" d="M45.12,33.6c.68-.44,1.23-.76,2.15-.87-.3-.45-.69-1.11-.77-1.66-.07-.52.24-1.01.21-1.52-.03-.4-.26-.66-.36-1l-.14-.51.29-.59v-.88l-.29-1.39-1.39-.59.15,1.1v1.03c0,.72-.28,1.46-.07,2.19.14.5.3.98.29,1.51-.02,1.17-.71,2.03-.06,3.18h0Z"/>
          <path class="cls-75" d="M48.81,32.66l-.19-.73c0-.68.6-1.09.51-1.83l-.22-.59-.07-.66-.29-.44.22-.95-.07-1.25-1.39-.51v1.1c.05.77-.13,1.08.15,1.83l-.29.66c.12.83.09,1.67.29,2.53l.07.88,1.06-.04s.22,0,.22,0Z"/>
          <path class="cls-76" d="M50.45,32.8l1.03.15c.15.03.31-2.35.29-2.56l-.07-.8.14-.44c.12-.35-.34-1.12-.51-1.47v-1.03l-1.24-.07.15.81c-.12.81-.02,1.14.15,1.9l.22,1.03c.07.33-.21,1.16-.22,1.59,0,.21.07.54.07.9h0Z"/>
          <path class="cls-86" d="M52.58,32.51l.07-1.02c.03-.46-.17-.91-.07-1.47l.14-.73c.09-.45-1.45-.74-.44-1.24l-.11-1.32,1.8.07-.07.59c-.07.51-.52.88-.59,1.46l.15,1.1c.04.62-.1,1.53.07,2.12l.29,1.02.07.36-1.28-.26-.04-.69h0Z"/>
          <path class="cls-85" d="M55.29,33.1v-.88l-.3-1.02c-.19-.67-.28-1.98,0-2.64l.22-.51-.15-1.14.57.13.46.78c.26.44-.07,2.25-.07,2.93l.07.95-.33.74-.47.65h0Z"/>
          <path class="cls-13" d="M25.89,35.8c-.16-.08-.31-.16-.36-.23-.24-.31-.34-.83-.37-1.22-.07-1.03.45-1.98.91-2.87-.05.87-.48,1.6-.54,2.41-.06.83.66,1.44.91,2.2-.02-.05-.3-.17-.55-.3ZM32.88,35.58c-1.04-1.6.88-3.58.72-5.32-.19-1.99.91-3.91.47-5.99-.18-.88-.05-1.7-.01-2.61.99,3.62.07,6.95-.34,10.6-.13,1.15-.62,2.18-.83,3.31h0ZM36.24,35.51l-.37-.66-.14-.81c-.18-.98-.06-1.59.22-2.49l.29-.95.3-1.68.22-1.17c-.08.45.14,1.05.16,1.5.05.89-.28,1.75-.53,2.59l-.15,1.25.24,2.05.06.66-.3-.3h0ZM36.76,24.97v-2.64l-.07-1.98.73.29c.31.12-.47,3.73-.66,4.32h0ZM39.91,34.41c-.09-.89-.69-1.44-.48-2.37.15-.63.42-1.26.63-1.88-.02.6.01,1.2-.06,1.8-.04.29-.26.78-.23,1.06,0,0,.14,1.34.14,1.39h0ZM42.1,34.05c.09-.3-.16-.9-.19-1.22-.12-1.06.38-1.93.49-2.95l.15,1.32-.37.95.14,1.17-.22.73h0ZM45.69,32.95l-.22-.88.07-.81.22-1.24v-.65c0,.81.26,1.63.22,2.44-.02.27-.34.92-.29,1.14h0ZM13.25,33.02c.17-.36.15-.81.3-1.17.35-.87,1.17-1.61,1.75-2.34l1.1-1.76.51-.44-.81,1.39-.73,1.39-.8.95-.73.73s-.56,1.2-.59,1.25h0Z"/>
          <path class="cls-2" d="M31.87,18.88c.15.04.33.05.55.05,1.2-.01,2.5-.08,3.6-.6,1.08-.51,1.78-1.4,2.69-2.13.2-.16,1.08-.52,1.12-.68l.73-2.78c-.06-.39-.26-.92-.21-1.3.11-.77.65-.97.25-1.81-.38-.8-.41-1.66-.48-2.53l.51-1.24,1.03-.37-.81-.15.59-.66-1.17.15c.63-.52.81-.63.88-1.46-.43.05-.89.15-1.32.15l-.73-.15.44-.51.59-.59.44-.38c-.12.12-.93.01-1.1.01.13-.26.27-.51.35-.78-.03.09-1.24.57-1.37.64l-.51.07v-.58h-1.25c.24-.26.51-.53.69-.82-.21-.03-.4,0-.62.01.02-.09.02-.18-.01-.27-.55.09-1.31.23-1.82.48l-.88.59-1.03.81.8-1.25.66-.66-1.39.37c-.22.07-.22-.29-.22-.29l-1.17.51-1.54.73-1.25.66c-3.26,1.63-6.2,3.87-7.54,7.4l-2.2,5.78,3.76.38c2,.2,3.82.05,5.58,1.18l2.18,1.38c.5.31.75.54,1.17.64h0Z"/>
          <path class="cls-84" d="M16.92,19.84l3.15,1.54,4.32,3.08,2.41,1.39,2.64,1.24,3.22,1.83,1.83.88,2.64.81-.73-.66c-.28-.25-.43-.81-.82-1.09-.37-.27-.79-.33-1.23-.44-.61-.15-.83-.73-1.27-1.11-.54-.47-1.19-.27-1.73-.65l-.73-.51-1.47-.8-1.54-.22-1.54-1.17c-.54-.41-.94-1.02-1.57-1.31-.67-.31-1.11-.17-1.69-.76-.59-.61-1.27-1.12-2.01-1.52l-.73-.44,4.32.22,3,.66,6.66.88,5.93.73h3l2.27-.07,3.81-.51-1.76-.22-1.76-.15-1.9.22-3.44-.29-3.51-.73c-.54-.11-1.1-.38-1.63-.56-.94-.33-2-.23-2.98-.56l-1.91-.64c-2.88-.42-5.68-.44-8.57-.29l-1.61.22-1.9.44-1.17.59h0Z"/>
          <path class="cls-1" d="M18.89,21.53l-1.24.59h-1.32c-.22,0-1.98-.88-1.98-.88l-.51-.88c-.43-.74-.73-3.1.22-3.66l1.24-.73,1.17-1.02c.8-.7.05-1.95-.15-2.71l-.37-1.47c-.23-.91-.4-2.03-.27-2.97.16-1.09.84-1.58,1.66-2.23l.95-.44,1.39-1.61c.48-.56.93-1.44,1.58-1.81.55-.31,1.31-.21,1.93-.24-.89.04-1.99,1.63-2.34,2.34l2.71-2.56,1.24-.51,1.17-.07,1.76.29c-1.17-.19-2.45.37-3.29,1.16-.94.88-1.06,2.05-1.4,3.23.19-.66,1.17-1.53,1.61-2.07l1.53-1.67,2.2-1.1,1.46-.29,2.05.44c-1.39-.29-3.3,1.12-4.25,1.98l-.88,1.32-.95,3.51,2.64-2.42c1.49-1.03,3.15-2.52,5.02-2.82.68-.11,1.53.16,2.23.26l-2.05.58-1.61,1.24-1.54,2.42-1.02,1.98-.51.95,3.37-.95c.86-.24,1.69-.76,2.52-1.1,1.31-.54,2.7-.93,4.11-1.12.66-.09,2-.46,2.61-.27l1.17.37.88.88-1.25-.15c-.44-.05-1.27,1.22-1.2,1.58.08.41,1.24.82,1.64.77l1.17-.15.66.44h1.03l.81.29c1.27.46,3.22.22,4.47-.29l-2.49,1.03-.96-.22-1.02.44-1.32.51c.1.77.49.58,1.17.59l.88-.51.96.15.66-.37.88-.07,1.1-.44-1.46,1.03-3,.81c-.93.1-3.47-.08-3.81,1.1.76.68,1.3.8,2.29.56.52-.13.73-.11,1.25-.12.89-.02,1.4-.52,2.31-.44h.88l1.17-.07,1.39-.29-2.42.88-2.64.22-3.22.37c-3.33.3-6.69.37-10.03.51l-1.9.15s-2.49.95-2.93.95-2.56.81-2.56.81l-.51.07,8.05-.44,6.23-.29,5.13.15-8.94.66-4.54.29-4.91.29c-.22,0-2.34.15-2.34.15-1.7.12-3.39.36-5.05.73l-1.17.81c.25.84.56.17.88.58l.29.37-.36.65h0Z"/>
          <path class="cls-22" d="M14.51,17.76c.54-.9,1.43-1.23,2.57-1.92.8-.49,1.07-1.3,1.23-2.2.34-2.03.15-4.06.92-6.03.43-1.1,1.11-2.15,1.64-3.21l-.78,2.97c-.28,1.02-.81,1.99-.83,3.04v1.75c1-2.49,2.25-4.41,3.81-6.59l-1.67,2.97c-.61,1.18-.89,2.25-1.33,3.47-.24.67-.59,1.33-.89,1.98l2.55-2.4c.7-.76,1.24-1.61,1.99-2.33l1.54-1.49c-1.02,1.2-1.73,2.3-2.57,3.6-.75,1.17-1.78,2.36-2.84,3.26-.69.59-1.47,1.09-2.2,1.63,1.6-.66,3.14-1.3,4.62-2.22,1.27-.78,2.11-2.03,3.48-2.68.93-.44,1.92-.79,2.87-1.17-1.63.9-3.21,1.71-4.64,2.9-1.31,1.1-2.33,2.46-3.92,3.21-.95.45-2.15.62-3.16.91l4.84-1.24c1.58-.54,3.03-1.38,4.6-1.89l3.15-.9-7.2,2.94c-.64.29-1.74.58-2.1,1.24l7.55-1.76c-3.29.92-6.62,2.17-10.02,2.42-.56.04-1.17.15-1.71.31-.18.05-.66.15-.77.31-.14.2.08,1.07-.02,1.13.9-.53,1.66-1.12,2.7-1.29,1.19-.19,2.33-.4,3.53-.4l-3.05.85c-1.17.32-1.39.35-2.08,1.35l.95.51c-.54.54-2.37-.05-2.83-.48-.45-.41-.49-.9-.36-1.46.1-.44.24-.8.42-1.1h0Z"/>
          <path class="cls-20" d="M34.78,7.17c.88-.57,1.69-1.24,2.42-2,1.11-1.15,2.12-1.24,3.66-1.45l-.59.81-2.01.52c-1.24.44-2.38,1.4-3.49,2.12h0Z"/>
          <path class="cls-18" d="M31.64,6.3l3.52-2.12c.5-.3,1.57-.29,2.17-.53.97-.38,1.87-.93,2.8-1.38l-.88-.07.44-.73c-.26.43-.95.42-1.36.58-.56.22-1.01.6-1.49.96-.98.72-2.17,1.09-3.16,1.82l-2.04,1.48h0Z"/>
          <path class="cls-19" d="M28.34,4.69l2.27-2.2,2.85-1.39,1.03-.95c-.22.07-1.61.44-1.61.44v-.58l-1.98,1.24-1.39,1.17c-.22.22-1.61,2.2-1.61,2.2,1.08-1.53,2.76-2.88,4.49-3.56-1.53,1-2.9,2.23-4.06,3.64h0Z"/>
          <path class="cls-87" d="M21.67,7.03c0-.33-.1-.59-.22-.59s-.22.26-.22.59.1.58.22.58.22-.26.22-.58ZM19.55,6.33c0-.26-.11-.48-.26-.48s-.25.21-.25.48.11.47.25.47.26-.21.26-.47h0ZM28.62,9.99c-.04-.2-.34-.31-.68-.25s-.58.27-.55.47.34.31.68.25.58-.27.55-.47h0ZM30.46,11.53c0-.14-.18-.26-.4-.26s-.4.11-.4.26.18.26.4.26.4-.11.4-.26ZM33.39,13.29c0-.18-.15-.33-.33-.33s-.33.15-.33.33.15.33.33.33c.18,0,.33-.15.33-.33h0ZM33.76,14.86c0-.12-.2-.22-.44-.22s-.44.1-.44.22.19.22.44.22.44-.1.44-.22h0ZM36.47,9.74c0-.12-.33-.22-.73-.22s-.74.1-.74.22.33.22.74.22.73-.1.73-.22ZM27.51,15.04c-.02-.08-.34-.06-.71.04s-.65.25-.63.33.34.06.71-.04.65-.25.63-.33h0ZM23.89,12.66c.21-.32.25-.67.1-.76s-.44.09-.65.41-.25.67-.1.76.44-.08.65-.41h0ZM22.44,10.28c.17-.3.19-.61.05-.69s-.39.1-.55.4-.19.61-.05.69.39-.1.55-.4h0ZM16.84,10.54c0-.36-.08-.66-.18-.66s-.18.3-.18.66.08.66.18.66.19-.29.19-.66h0Z"/>
        </g>
      </g>
    </symbol>
  </defs>
  <use width="74.85" height="55.9" transform="translate(-10.88 184.75) rotate(15.18) scale(3.24 -3.24)" xlink:href="#v"/>
</svg>